<svg xmlns="http://www.w3.org/2000/svg" width="116.12" height="116.129" viewBox="0 0 116.12 116.129">
  <g id="handshake_1_" data-name="handshake (1)" transform="translate(0 -0.498)">
    <g id="Group_6978" data-name="Group 6978" transform="translate(0 0.498)">
      <g id="Group_6977" data-name="Group 6977" transform="translate(0 0)">
        <path id="Path_5530" data-name="Path 5530" d="M86.013,46.448,81.458,51a34.426,34.426,0,0,0-14.071-7.929,22.311,22.311,0,1,0-18.68-.013,34.1,34.1,0,0,0-13.981,7.881l-4.618-4.618L0,76.431l9.787,9.787,4.265-4.265,3.672,3.672,4.435-4.435L31.168,90.2l-4.04,4.04,8.071,8.078,0,0,5.725,5.73,0,0,5.519,5.524,1.284-1.284,4.341,4.344,5.161-5.161,4.857,4.857,4.869-4.869,1.876,1.875,7.147-7.147,6.023-6.023,7.27-7.27-3.5-3.5,8.157-8.157,4.488,4.489,3.645-3.645,4.265,4.265,9.787-9.787ZM70.492,47.739a31.015,31.015,0,0,1,8.6,5.633L74.256,58.2H61.363ZM58.06,56.9l-9.089-10.42a30.908,30.908,0,0,1,18.165.016Zm0-53.048a18.982,18.982,0,0,1,18.96,18.961c0,.065,0,.128,0,.193-12.569-.333-20.056-4.543-23-6.612a16.42,16.42,0,0,0,2.074-3.036l-3.014-1.462c-.035.071-3.38,6.743-13.969,10.5A18.98,18.98,0,0,1,58.06,3.848ZM39.347,25.854a33.365,33.365,0,0,0,12.328-7.011c3.074,2.285,11.137,7.087,25.01,7.5a18.958,18.958,0,0,1-37.338-.488Zm6.266,21.869L54.757,58.2H41.988l-4.894-4.894A30.883,30.883,0,0,1,45.614,47.723ZM17.724,80.888l-1.3-1.3,14.19-14.191-2.369-2.368L12.867,78.4l-3.08,3.08-5.05-5.05,25.37-25.37,8.728,8.728ZM35.2,97.579,31.864,94.24l7.128-7.128,3.337,3.337Zm5.543,5.543-3.152-3.154L44.72,92.84l3.153,3.153Zm5.519,5.519L43.3,105.674l7.128-7.128,2.966,2.966Zm5.813,3.248L50.1,109.914l4.563-4.563,1.974,1.974Zm10.016-.3L59.6,109.1l1.773-1.773-4.343-4.343.727-.727,1.611,1.611-.016.016,5.219,5.22ZM83.41,87.022,64.683,68.3,51.638,81.34l-7.124-7.124,8.308-8.308-2.369-2.369L39.777,74.216,51.639,86.077,64.683,73.033,79.319,87.669l5.219,5.22-3.594,3.594L72.2,87.741,69.834,90.11l8.742,8.741-3.717,3.717-8.742-8.742L63.749,96.2l8.742,8.741-3.655,3.655-8.741-8.741-1.813,1.813-5.486-5.486L47.067,90.45,44.72,88.1l-5.727-5.728L33.538,87.83l-9-9L41.807,61.554h32.45l17.31,17.31Zm22.924-5.417-3.08-3.08L87.878,63.15,85.51,65.519,99.7,79.709l-1.276,1.276-21.1-21.1,8.694-8.695,25.37,25.37Z" transform="translate(0 -0.498)" fill="#fff"/>
      </g>
    </g>
    <g id="Group_6980" data-name="Group 6980" transform="translate(81.464 59.107)">
      <g id="Group_6979" data-name="Group 6979" transform="translate(0 0)">
        <rect id="Rectangle_1757" data-name="Rectangle 1757" width="3.35" height="2.779" transform="translate(0 2.369) rotate(-45)" fill="#fff"/>
      </g>
    </g>
    <g id="Group_6982" data-name="Group 6982" transform="translate(30.318 58.984)">
      <g id="Group_6981" data-name="Group 6981" transform="translate(0 0)">
        <rect id="Rectangle_1758" data-name="Rectangle 1758" width="2.78" height="3.35" transform="matrix(0.707, -0.707, 0.707, 0.707, 0, 1.965)" fill="#fff"/>
      </g>
    </g>
  </g>
</svg>
