<svg id="balance" xmlns="http://www.w3.org/2000/svg" width="82.007" height="82.008" viewBox="0 0 82.007 82.008">
  <g id="Group_36" data-name="Group 36">
    <path id="Path_205" data-name="Path 205" d="M81.872,50.005l.012,0L68.42,20.623,71.685,19l-1.222-2.447L67.28,18.137,66.85,17.2a1.367,1.367,0,0,0-2.485,0l-.384.839A17.582,17.582,0,0,0,56.587,16.4H45.106V13.668h2.734V10.934H45.49L46.472,7A5.635,5.635,0,1,0,35.538,7l.983,3.932H34.171v2.734H36.9V16.4H25.431a17.582,17.582,0,0,0-7.4,1.64l-.384-.839a1.367,1.367,0,0,0-2.485,0l-.431.939-3.183-1.592L10.325,19,13.59,20.63.126,50a1.335,1.335,0,0,0-.124.57,9.578,9.578,0,0,0,9.567,9.567H23.237A9.578,9.578,0,0,0,32.8,50.571a1.336,1.336,0,0,0-.137-.566l-13.5-29.488a14.867,14.867,0,0,1,6.264-1.382H36.9V69.14l-4.666,4.666h-4.9A6.842,6.842,0,0,0,20.5,80.64a1.367,1.367,0,0,0,1.367,1.367H60.14a1.367,1.367,0,0,0,1.367-1.367,6.842,6.842,0,0,0-6.834-6.834h-4.9L45.106,69.14V19.135H56.587a14.867,14.867,0,0,1,6.264,1.382L49.33,50a1.335,1.335,0,0,0-.124.57,9.578,9.578,0,0,0,9.567,9.567H72.441a9.578,9.578,0,0,0,9.567-9.567A1.331,1.331,0,0,0,81.872,50.005ZM23.237,57.4H9.569a6.845,6.845,0,0,1-6.7-5.467H29.934A6.845,6.845,0,0,1,23.237,57.4Zm6.071-8.2H3.5L16.053,21.813a1.35,1.35,0,0,0,.7,0Zm9.41-45.355a2.991,2.991,0,0,1,4.573,0,2.885,2.885,0,0,1,.529,2.49l-1.149,4.6H39.339l-1.149-4.6A2.886,2.886,0,0,1,38.719,3.849Zm.92,12.553V13.668h2.734V16.4Zm2.734,2.734v49.2H39.639v-49.2Zm12.3,57.4a4.108,4.108,0,0,1,3.867,2.734H23.471a4.108,4.108,0,0,1,3.867-2.734Zm-8.767-2.734H36.1l2.734-2.734h4.335Zm19.348-51.99a.933.933,0,0,0,.692-.029L78.512,49.2H52.7ZM72.441,57.4H58.773a6.845,6.845,0,0,1-6.7-5.467H79.138A6.845,6.845,0,0,1,72.441,57.4Z" transform="translate(-0.002 0.001)" fill="#fff"/>
  </g>
</svg>
