<svg fill="#fff" id="Component_45_1" data-name="Component 45 – 1" xmlns="http://www.w3.org/2000/svg" width="120.362" height="127.755" viewBox="0 0 120.362 127.755">
    <path id="Path_5534" data-name="Path 5534" d="M120.862,31.2a10.472,10.472,0,0,0-18.037-7.25L61.929.335a2.5,2.5,0,0,0-2.494,0l-40.9,23.612A10.476,10.476,0,1,0,8.485,41.373V88.58a2.5,2.5,0,0,0,1.248,2.161l40.885,23.605a10.479,10.479,0,1,0,20.122,0L111.63,90.741a2.5,2.5,0,0,0,1.248-2.161V41.373A10.5,10.5,0,0,0,120.863,31.2ZM5.491,31.2a5.489,5.489,0,1,1,5.489,5.489A5.5,5.5,0,0,1,5.491,31.2Zm55.187,91.569a5.489,5.489,0,1,1,5.489-5.489A5.5,5.5,0,0,1,60.678,122.765Zm7.562-12.734a10.455,10.455,0,0,0-15.12,0L13.475,87.14V41.373a10.473,10.473,0,0,0,7.564-13.11L60.681,5.377l39.643,22.887a10.473,10.473,0,0,0,7.564,13.11V87.14Zm42.143-73.345a5.489,5.489,0,1,1,5.489-5.489A5.5,5.5,0,0,1,110.383,36.686Zm0,0" transform="translate(-0.5 -0.001)"/>
    <path id="Path_5535" data-name="Path 5535" d="M169.3,96.933,136.367,77.917a2.5,2.5,0,0,0-2.494,0L100.936,96.933a2.5,2.5,0,0,0-1.248,2.161v38.032a2.5,2.5,0,0,0,1.248,2.161L133.872,158.3a2.493,2.493,0,0,0,2.494,0L169.3,139.286a2.5,2.5,0,0,0,1.248-2.161V99.093A2.5,2.5,0,0,0,169.3,96.933ZM135.119,82.959l27.946,16.134-27.946,16.135L107.174,99.093Zm2.5,68.86V140.567a2.495,2.495,0,1,0-4.989,0V151.82l-27.946-16.135V103.415l29.194,16.855a2.493,2.493,0,0,0,2.494,0l29.194-16.855v32.269Zm0,0" transform="translate(-74.938 -58.225)"/>
    <path id="Path_5536" data-name="Path 5536" d="M234.162,275a2.5,2.5,0,1,0,1.764.731A2.518,2.518,0,0,0,234.162,275Zm0,0" transform="translate(-173.984 -206.382)"/>
</svg>
