<svg xmlns="http://www.w3.org/2000/svg" width="114.288" height="120.333" viewBox="0 0 114.288 120.333">
  <g id="concept" transform="translate(-12.86)">
    <g id="Group_7133" data-name="Group 7133" transform="translate(12.86 0)">
      <g id="Group_7132" data-name="Group 7132">
        <g id="Group_7128" data-name="Group 7128">
          <g id="Group_7124" data-name="Group 7124" transform="translate(0 10.733)">
            <g id="Group_7123" data-name="Group 7123">
              <g id="Group_7122" data-name="Group 7122">
                <g id="Group_7121" data-name="Group 7121">
                  <path id="Path_5879" data-name="Path 5879" d="M23.638,168.168H108.2a4.515,4.515,0,0,0,4.515-4.515V86.786L111.243,82.6H16.6l.121,68.233-3.861,5.578V164.1C13.541,168.3,21.5,168.168,23.638,168.168Z" transform="translate(-12.86 -73.922)" fill="#f2f9ff"/>
                  <path id="Path_5880" data-name="Path 5880" d="M122.8,82.6H111.243v78.059a4.443,4.443,0,0,1-4.443,4.443H21.552a8.692,8.692,0,0,1-8.692-8.692V164.1a8.692,8.692,0,0,0,8.692,8.692H122.8a4.35,4.35,0,0,0,4.35-4.35V86.953A4.35,4.35,0,0,0,122.8,82.6Z" transform="translate(-12.86 -73.922)" fill="#e2f4ff"/>
                  <g id="Group_7120" data-name="Group 7120">
                    <path id="Path_5881" data-name="Path 5881" d="M12.86,54.348V135.84a8.681,8.681,0,0,1,8.681-8.681h6.966a3.018,3.018,0,0,0,3.018-3.018V48.685a3.018,3.018,0,0,0-3.018-3.018H21.541a8.681,8.681,0,0,0-8.681,8.681Z" transform="translate(-12.86 -45.667)" fill="#4a80aa"/>
                  </g>
                </g>
              </g>
            </g>
          </g>
          <g id="Group_7127" data-name="Group 7127" transform="translate(83.248)">
            <g id="Group_7125" data-name="Group 7125">
              <path id="Path_5882" data-name="Path 5882" d="M367.069,91.363v80.444a11.342,11.342,0,0,0,.563,3.528l4.213,12.865a2.938,2.938,0,0,0,5.584,0l4.213-12.865a11.336,11.336,0,0,0,.563-3.528V91.363Z" transform="translate(-367.069 -69.89)" fill="#7c54c6"/>
              <path id="Path_5883" data-name="Path 5883" d="M380.025,17.356l2.179-2.124V7.568a7.568,7.568,0,0,0-15.135,0v7.664l2.179,2.124Z" transform="translate(-367.069 0)" fill="#5b8eb7"/>
            </g>
            <g id="Group_7126" data-name="Group 7126" transform="translate(0 101.916)">
              <path id="Path_5884" data-name="Path 5884" d="M367.069,433.64H382.2a11.336,11.336,0,0,1-.563,3.528l-4.213,12.865a2.938,2.938,0,0,1-5.584,0l-4.213-12.865A11.335,11.335,0,0,1,367.069,433.64Z" transform="translate(-367.069 -433.64)" fill="#365e7d"/>
            </g>
            <path id="Path_5885" data-name="Path 5885" d="M367.069,64.807H382.2v8.365H367.069Z" transform="translate(-367.069 -49.576)" fill="#707070"/>
            <path id="Path_5886" data-name="Path 5886" d="M391.541,100.4h3.632v78.32h-3.632Z" transform="translate(-385.789 -76.803)" fill="#fff"/>
          </g>
        </g>
        <g id="Group_7131" data-name="Group 7131" transform="translate(30.982 36.389)">
          <g id="Group_7130" data-name="Group 7130">
            <path id="Path_5887" data-name="Path 5887" d="M186.709,188.929v-20.64a3.137,3.137,0,0,0-1.568-2.716l-17.875-10.32a3.137,3.137,0,0,0-3.137,0l-17.875,10.32a3.137,3.137,0,0,0-1.568,2.716v20.64a3.137,3.137,0,0,0,1.568,2.716l17.875,10.32a3.137,3.137,0,0,0,3.137,0l17.875-10.32A3.137,3.137,0,0,0,186.709,188.929Z" transform="translate(-144.686 -154.832)" fill="#bed8fb"/>
            <g id="Group_7129" data-name="Group 7129" transform="translate(0.42)">
              <path id="Path_5888" data-name="Path 5888" d="M228.178,227.155a1.816,1.816,0,0,0-1.816,1.816v28.177l.248.143a3.137,3.137,0,0,0,3.137,0l.247-.143V228.971A1.816,1.816,0,0,0,228.178,227.155Z" transform="translate(-207.586 -210.157)" fill="#9dc6fb"/>
              <path id="Path_5889" data-name="Path 5889" d="M168.967,177.511l18.69-10.79a3.135,3.135,0,0,0-1.148-1.148l-17.875-10.32a3.137,3.137,0,0,0-3.137,0l-17.875,10.32a3.135,3.135,0,0,0-1.148,1.148l18.69,10.79A3.8,3.8,0,0,0,168.967,177.511Z" transform="translate(-146.474 -154.832)" fill="#9dc6fb"/>
            </g>
          </g>
        </g>
      </g>
    </g>
  </g>
</svg>
