<svg xmlns="http://www.w3.org/2000/svg" width="214" height="63" viewBox="0 0 214 63">
  <g id="Group_7" data-name="Group 7" transform="translate(-159 -1076)">
    <circle id="Ellipse_1" data-name="Ellipse 1" cx="5.5" cy="5.5" r="5.5" transform="translate(159 1076)" fill="#7c54c6"/>
    <circle id="Ellipse_16" data-name="Ellipse 16" cx="5.5" cy="5.5" r="5.5" transform="translate(159 1102)" fill="#7c54c6"/>
    <circle id="Ellipse_24" data-name="Ellipse 24" cx="5.5" cy="5.5" r="5.5" transform="translate(159 1128)" fill="#7c54c6"/>
    <circle id="Ellipse_2" data-name="Ellipse 2" cx="5.5" cy="5.5" r="5.5" transform="translate(188 1076)" fill="#7c54c6"/>
    <circle id="Ellipse_15" data-name="Ellipse 15" cx="5.5" cy="5.5" r="5.5" transform="translate(188 1102)" fill="#7c54c6"/>
    <circle id="Ellipse_23" data-name="Ellipse 23" cx="5.5" cy="5.5" r="5.5" transform="translate(188 1128)" fill="#7c54c6"/>
    <circle id="Ellipse_3" data-name="Ellipse 3" cx="5.5" cy="5.5" r="5.5" transform="translate(217 1076)" fill="#7c54c6"/>
    <circle id="Ellipse_14" data-name="Ellipse 14" cx="5.5" cy="5.5" r="5.5" transform="translate(217 1102)" fill="#7c54c6"/>
    <circle id="Ellipse_22" data-name="Ellipse 22" cx="5.5" cy="5.5" r="5.5" transform="translate(217 1128)" fill="#7c54c6"/>
    <circle id="Ellipse_4" data-name="Ellipse 4" cx="5.5" cy="5.5" r="5.5" transform="translate(246 1076)" fill="#7c54c6"/>
    <circle id="Ellipse_13" data-name="Ellipse 13" cx="5.5" cy="5.5" r="5.5" transform="translate(246 1102)" fill="#7c54c6"/>
    <circle id="Ellipse_21" data-name="Ellipse 21" cx="5.5" cy="5.5" r="5.5" transform="translate(246 1128)" fill="#7c54c6"/>
    <circle id="Ellipse_5" data-name="Ellipse 5" cx="5.5" cy="5.5" r="5.5" transform="translate(275 1076)" fill="#7c54c6"/>
    <circle id="Ellipse_12" data-name="Ellipse 12" cx="5.5" cy="5.5" r="5.5" transform="translate(275 1102)" fill="#7c54c6"/>
    <circle id="Ellipse_20" data-name="Ellipse 20" cx="5.5" cy="5.5" r="5.5" transform="translate(275 1128)" fill="#7c54c6"/>
    <circle id="Ellipse_6" data-name="Ellipse 6" cx="5.5" cy="5.5" r="5.5" transform="translate(304 1076)" fill="#7c54c6"/>
    <circle id="Ellipse_11" data-name="Ellipse 11" cx="5.5" cy="5.5" r="5.5" transform="translate(304 1102)" fill="#7c54c6"/>
    <circle id="Ellipse_19" data-name="Ellipse 19" cx="5.5" cy="5.5" r="5.5" transform="translate(304 1128)" fill="#7c54c6"/>
    <circle id="Ellipse_7" data-name="Ellipse 7" cx="5.5" cy="5.5" r="5.5" transform="translate(333 1076)" fill="#7c54c6"/>
    <circle id="Ellipse_10" data-name="Ellipse 10" cx="5.5" cy="5.5" r="5.5" transform="translate(333 1102)" fill="#7c54c6"/>
    <circle id="Ellipse_18" data-name="Ellipse 18" cx="5.5" cy="5.5" r="5.5" transform="translate(333 1128)" fill="#7c54c6"/>
    <circle id="Ellipse_8" data-name="Ellipse 8" cx="5.5" cy="5.5" r="5.5" transform="translate(362 1076)" fill="#7c54c6"/>
    <circle id="Ellipse_9" data-name="Ellipse 9" cx="5.5" cy="5.5" r="5.5" transform="translate(362 1102)" fill="#7c54c6"/>
    <circle id="Ellipse_17" data-name="Ellipse 17" cx="5.5" cy="5.5" r="5.5" transform="translate(362 1128)" fill="#7c54c6"/>
  </g>
</svg>
