<svg xmlns="http://www.w3.org/2000/svg" width="72.703" height="67.977" viewBox="0 0 72.703 67.977">
  <g id="loan" transform="translate(0 0)">
    <path id="Path_9281" data-name="Path 9281" d="M83.785,73.568a2.261,2.261,0,0,0-2.1-1.416H80.511a11.64,11.64,0,0,0-5.666,1.477l-8.556,4.784h-2.44a6.754,6.754,0,0,0-6.637-5.538H41.8a1.209,1.209,0,0,0-.922.428L36.21,78.837a1.2,1.2,0,0,0-.91-.424H12.456a1.206,1.206,0,0,0,0,2.412H27.191V98.11H12.456a1.206,1.206,0,0,0,0,2.412H35.3a1.206,1.206,0,0,0,1.206-1.206V93.533L61.1,92.4a.279.279,0,0,0,.069-.006,17.373,17.373,0,0,0,10.274-4.824L83.267,76.045A2.262,2.262,0,0,0,83.785,73.568ZM34.1,98.11H29.6V80.825H34.1Zm35.665-12.26A14.948,14.948,0,0,1,60.955,90L36.508,91.119v-8.89l5.858-6.941H57.212A4.342,4.342,0,0,1,61.443,78.7l-12.221,3a1.206,1.206,0,0,0,.286,2.377,1.19,1.19,0,0,0,.289-.035l13.1-3.216H66.6a1.205,1.205,0,0,0,.589-.153l8.831-4.938a9.214,9.214,0,0,1,4.489-1.172h.827Z" transform="translate(-11.25 -32.545)" fill="#7c54c6"/>
    <path id="Path_9282" data-name="Path 9282" d="M74.254,50.431A17.874,17.874,0,1,0,56.38,32.556,17.874,17.874,0,0,0,74.254,50.431Zm0-33.337A15.462,15.462,0,1,1,58.792,32.556,15.462,15.462,0,0,1,74.254,17.094Z" transform="translate(-25.278 -14.682)" fill="#7c54c6"/>
    <path id="Path_9283" data-name="Path 9283" d="M76.632,39.106a1.206,1.206,0,1,0-2.412,0,5.6,5.6,0,0,0,4.371,5.453v2.028a1.206,1.206,0,0,0,2.412,0V44.565a5.586,5.586,0,0,0,0-10.917V27.4a3.18,3.18,0,0,1,1.985,2.941,1.206,1.206,0,0,0,2.412,0A5.6,5.6,0,0,0,81,24.879V22.856a1.206,1.206,0,0,0-2.412,0v2.028a5.586,5.586,0,0,0,0,10.9v6.249a3.183,3.183,0,0,1-1.959-2.932Zm6.356,0A3.179,3.179,0,0,1,81,42.047V36.165a3.178,3.178,0,0,1,1.985,2.941Zm-6.356-8.768A3.181,3.181,0,0,1,78.591,27.4v5.867a3.183,3.183,0,0,1-1.959-2.934Z" transform="translate(-30.822 -16.848)" fill="#7c54c6"/>
  </g>
</svg>
