<svg id="diagram" xmlns="http://www.w3.org/2000/svg" width="70.279" height="70.279" viewBox="0 0 70.279 70.279">
  <g id="Group_7179" data-name="Group 7179">
    <path id="Path_9284" data-name="Path 9284" d="M69.108,31.626h-8.2V24.6a1.171,1.171,0,0,0-1.171-1.171H36.311V14.056h8.2a1.171,1.171,0,0,0,1.171-1.171V1.171A1.171,1.171,0,0,0,44.51,0H25.769A1.171,1.171,0,0,0,24.6,1.171V12.885a1.171,1.171,0,0,0,1.171,1.171h8.2v9.371H10.542A1.171,1.171,0,0,0,9.371,24.6v7.028h-8.2A1.171,1.171,0,0,0,0,32.8V44.51a1.171,1.171,0,0,0,1.171,1.171H19.912a1.171,1.171,0,0,0,1.171-1.171V32.8a1.171,1.171,0,0,0-1.171-1.171h-8.2V25.769H33.968v5.857h-8.2A1.171,1.171,0,0,0,24.6,32.8V44.51a1.171,1.171,0,0,0,1.171,1.171h8.2V56.223h-8.2A1.171,1.171,0,0,0,24.6,57.395V69.108a1.171,1.171,0,0,0,1.171,1.171H44.51a1.171,1.171,0,0,0,1.171-1.171V57.395a1.171,1.171,0,0,0-1.171-1.171h-8.2V45.682h8.2a1.171,1.171,0,0,0,1.171-1.171V32.8a1.171,1.171,0,0,0-1.171-1.171h-8.2V25.769H58.566v5.857h-8.2A1.171,1.171,0,0,0,49.2,32.8V44.51a1.171,1.171,0,0,0,1.171,1.171H69.108a1.171,1.171,0,0,0,1.171-1.171V32.8A1.171,1.171,0,0,0,69.108,31.626ZM18.741,33.968v9.371H2.343V33.968Zm24.6,24.6v9.371H26.94V58.566Zm0-24.6v9.371H26.94V33.968ZM26.94,11.713V2.343h16.4v9.371Zm41,31.626h-16.4V33.968h16.4Z" fill="#7c54c6"/>
  </g>
</svg>
