<svg xmlns="http://www.w3.org/2000/svg" width="696.326" height="492.762" viewBox="0 0 696.326 492.762">
  <g id="Group_7090" data-name="Group 7090" transform="translate(0)">
    <path id="Path_5803" data-name="Path 5803" d="M965.464,532.44a56.5,56.5,0,0,1-17.97,12.715h-.008c-.634.3-1.269.594-1.912.87h-.008l-.008.008-.008-.008h-.008a.007.007,0,0,1,0,.006l-.006,0h-.008l-.008-.008c-.008.008-.008.008-.016,0l-.008.008-.008-.008h-.008c-.008.008-.008.008-.016,0h-.008a113.706,113.706,0,0,1-13.878,4.962,192.513,192.513,0,0,1-85.506,4.466l-1.627-.293V489.178c.537-.228,1.082-.456,1.627-.675q5.332-2.209,10.795-4.059,7.858-2.684,15.936-4.6a172.6,172.6,0,0,1,53.723-4.344q4.918.366,9.811,1.058a73.982,73.982,0,0,1,20.28,5.491h.008c.919.431,1.822.879,2.717,1.359,5.6,3.034,10.315,7.207,13.195,12.926a24.868,24.868,0,0,1,2.213,6.5v.016c.162.781.276,1.57.366,2.351C976.136,514.828,972.142,525.135,965.464,532.44Z" transform="translate(-296.264 -158.328)" fill="#f2f2f2"/>
    <path id="Path_5804" data-name="Path 5804" d="M975.111,511.577a1.1,1.1,0,0,1-.244.033q-20.9.915-41.748,2.717h-.024c-.057.008-.106.008-.163.016q-21.4,1.855-42.716,4.645c-.6.081-1.2.163-1.79.236q-14.74,1.964-29.424,4.36-6.479,1.062-12.934,2.213c-.545.1-1.082.187-1.627.293v-2.465c.545-.106,1.09-.2,1.627-.293q21.5-3.807,43.147-6.646,5.442-.732,10.9-1.383,15.765-1.9,31.579-3.286l2.311-.2q20.243-1.721,40.544-2.611a.767.767,0,0,1,.2.016C976.046,509.34,976.323,511.292,975.111,511.577Z" transform="translate(-296.264 -169.901)" fill="#fff"/>
    <path id="Path_5805" data-name="Path 5805" d="M956.2,552.167a66.613,66.613,0,0,1-46.741-19.417,63.307,63.307,0,0,1-9.1-11.446c-.828-1.327-2.764.136-1.943,1.452a69.032,69.032,0,0,0,42.934,30.195,65.739,65.739,0,0,0,15.16,1.622C958.072,554.562,957.75,552.156,956.2,552.167Z" transform="translate(-306.295 -167.107)" fill="#fff"/>
    <path id="Path_5806" data-name="Path 5806" d="M872.8,480.95a1.377,1.377,0,0,1-1.017.919,53.053,53.053,0,0,0-11.454,4.474,55.646,55.646,0,0,0-14.261,10.779c-.22.22-.431.439-.634.667-.342.358-.667.724-.993,1.1v-3.547c.521-.553,1.066-1.1,1.627-1.619a58.5,58.5,0,0,1,10.8-8.167Q864.721,482.87,872.8,480.95Z" transform="translate(-296.683 -169.55)" fill="#fff"/>
    <path id="Path_5807" data-name="Path 5807" d="M978.031,482.848A56.458,56.458,0,0,0,951.657,506.1a1.22,1.22,0,0,0,.645,1.589,1.243,1.243,0,0,0,1.589-.645A53.73,53.73,0,0,1,978.943,485.1a1.214,1.214,0,0,0-.912-2.248Z" transform="translate(-316.244 -168.507)" fill="#fff"/>
    <path id="Path_5808" data-name="Path 5808" d="M991.34,388.635a56.4,56.4,0,0,1-10.006,19.605l-.008.008c-.415.553-.846,1.114-1.293,1.651v.008a113.286,113.286,0,0,1-10.1,10.893,189.892,189.892,0,0,1-43.416,31.018c-24.95,13.032-52.836,20.736-80.454,21.175-.211.008-.423.008-.634.008-.334.008-.667.008-.993.008V436.037c.529-1.009,1.074-2.017,1.627-3.018a178.58,178.58,0,0,1,26.056-35.647c.244-.268.5-.537.748-.8q5.71-6.028,11.974-11.478a171.5,171.5,0,0,1,54.74-32.418,73.663,73.663,0,0,1,20.508-4.556c1.017-.057,2.026-.081,3.043-.073,6.37.09,12.479,1.594,17.693,5.32a25.22,25.22,0,0,1,4.979,4.726c.5.626.968,1.269,1.415,1.928v.008C992.609,368.086,993.862,379.06,991.34,388.635Z" transform="translate(-296.264 -156.339)" fill="#f2f2f2"/>
    <path id="Path_5809" data-name="Path 5809" d="M987.224,362.307v.008a1.186,1.186,0,0,1-.195.138q-18.06,10.506-35.664,21.777c-.016.008-.024.016-.041.024a1.425,1.425,0,0,1-.147.089q-18.1,11.592-35.68,23.965c-.488.342-.984.691-1.48,1.041q-12.142,8.578-24.03,17.523-22.453,16.912-43.92,35.078c-.545.456-1.082.919-1.627,1.383V460.17c.537-.464,1.082-.927,1.627-1.383q8.225-6.943,16.6-13.691c1.668-1.342,3.343-2.685,5.019-4.01q22.331-17.779,45.661-34.232h.008q4.588-3.234,9.192-6.41,13.081-9.005,26.455-17.579c.642-.415,1.293-.83,1.944-1.245q17.12-10.933,34.687-21.151a1.206,1.206,0,0,1,.179-.089C987.028,359.891,988.175,361.5,987.224,362.307Z" transform="translate(-296.264 -159.038)" fill="#fff"/>
    <path id="Path_5810" data-name="Path 5810" d="M995.4,420.775a66.613,66.613,0,0,1-50.412,4.517,63.309,63.309,0,0,1-13.374-5.91c-1.35-.791-2.384,1.4-1.046,2.189a69.033,69.033,0,0,0,52.047,6.8,65.736,65.736,0,0,0,14.179-5.606c1.373-.733-.03-2.714-1.394-1.986Z" transform="translate(-312.212 -169.889)" fill="#fff"/>
    <path id="Path_5811" data-name="Path 5811" d="M869.365,445.761a55.765,55.765,0,0,1-.775-12.909,58.83,58.83,0,0,1,8.77-27.781q5.717-6.026,11.977-11.48a1.387,1.387,0,0,1-.477,1.289,53.242,53.242,0,0,0-8.063,9.28,56.23,56.23,0,0,0-9.015,41.4.987.987,0,0,1-.255.93,1.322,1.322,0,0,1-2.162-.728Z" transform="translate(-300.752 -164.917)" fill="#fff"/>
    <path id="Path_5812" data-name="Path 5812" d="M984.931,346.512a56.459,56.459,0,0,0-12.554,32.845,1.22,1.22,0,0,0,1.309,1.108,1.243,1.243,0,0,0,1.108-1.309,53.73,53.73,0,0,1,11.989-31.076C987.769,346.868,985.919,345.3,984.931,346.512Z" transform="translate(-320.126 -167.247)" fill="#fff"/>
    <path id="Path_5813" data-name="Path 5813" d="M876.826,368.924v.008c-.057.7-.122,1.391-.2,2.082v.016a114.95,114.95,0,0,1-2.644,14.61c-.569,2.359-1.188,4.7-1.863,7.045-.081.3-.171.6-.261.895v.008a186.684,186.684,0,0,1-7.11,20.053,194.356,194.356,0,0,1-18.686,34.345c-.529.789-1.074,1.578-1.627,2.359V322.954c.545-.033,1.082-.033,1.627-.016q.39,0,.781.024a24.668,24.668,0,0,1,6.736,1.31c.765.252,1.5.537,2.237.854,8.875,3.888,15.847,12.463,18.873,21.891A56.521,56.521,0,0,1,876.826,368.924Z" transform="translate(-296.671 -157.553)" fill="#f2f2f2"/>
    <path id="Path_5814" data-name="Path 5814" d="M855.823,325.315a.872.872,0,0,1-.09.228q-4.942,9.6-9.664,19.3c-.545,1.114-1.09,2.237-1.627,3.352v-5.532q.806-1.66,1.627-3.319,3.649-7.395,7.419-14.724a1.076,1.076,0,0,1,.1-.163C854.333,323.387,856.188,324.119,855.823,325.315Z" transform="translate(-296.73 -168.058)" fill="#fff"/>
    <path id="Path_5815" data-name="Path 5815" d="M877.086,380.716c-.146.26-.293.521-.456.781a64.928,64.928,0,0,1-8.477,11.584,69.891,69.891,0,0,1-22.086,16.083c-.537.26-1.082.5-1.627.732v-2.644c.545-.244,1.09-.5,1.627-.757a65.784,65.784,0,0,0,28.773-26.7,1.338,1.338,0,0,1,1.985-.382.938.938,0,0,1,.26,1.3Z" transform="translate(-296.67 -167.584)" fill="#fff"/>
    <path id="Path_5816" data-name="Path 5816" d="M720.919,194.345V256.17h-1.627v-.659H175.068v.659h-1.627V194.345A26.871,26.871,0,0,1,200.286,167.5H694.074A26.871,26.871,0,0,1,720.919,194.345Z" transform="translate(-173.441 -167.5)" fill="#7c54c6"/>
    <path id="Path_5817" data-name="Path 5817" d="M696.286,167.5H200.4c-14.883.018-26.945,14.568-26.959,32.522V627.74c.015,17.954,12.076,32.5,26.959,32.522H696.286c14.883-.018,26.945-14.568,26.959-32.522V200.022C723.23,182.068,711.169,167.518,696.286,167.5ZM721.611,627.74c-.018,16.864-11.346,30.53-25.325,30.551H200.4c-13.979-.022-25.307-13.687-25.325-30.551V200.022c.018-16.864,11.346-30.53,25.325-30.551H696.286c13.979.021,25.308,13.687,25.325,30.551Z" transform="translate(-173.441 -167.5)" fill="#3f3d56"/>
    <circle id="Ellipse_322" data-name="Ellipse 322" cx="16.27" cy="16.27" r="16.27" transform="translate(94.365 28.065)" fill="#fff"/>
    <circle id="Ellipse_323" data-name="Ellipse 323" cx="16.27" cy="16.27" r="16.27" transform="translate(422.052 28.065)" fill="#fff"/>
    <path id="Path_5818" data-name="Path 5818" d="M341.49,427.422H244.7a15.483,15.483,0,0,1-15.466-15.466V366.212A15.483,15.483,0,0,1,244.7,350.747H341.49a15.483,15.483,0,0,1,15.466,15.466v45.745a15.483,15.483,0,0,1-15.466,15.466Z" transform="translate(-183.848 -162.829)" fill="#7c54c6"/>
    <path id="Path_5819" data-name="Path 5819" d="M543.888,427.422H447.1a15.483,15.483,0,0,1-15.466-15.466V366.212A15.483,15.483,0,0,1,447.1,350.747h96.786a15.483,15.483,0,0,1,15.466,15.466v45.745a15.483,15.483,0,0,1-15.466,15.466Z" transform="translate(-220.735 -162.829)" fill="#7c54c6"/>
    <path id="Path_5820" data-name="Path 5820" d="M543.78,572.5H446.995a15.952,15.952,0,0,1-15.934-15.934V510.82a15.952,15.952,0,0,1,15.934-15.935H543.78a15.952,15.952,0,0,1,15.935,15.935v45.745A15.952,15.952,0,0,1,543.78,572.5Z" transform="translate(-220.628 -158.958)" fill="#f2f2f2"/>
    <path id="Path_5821" data-name="Path 5821" d="M340.992,572.5H244.207a15.952,15.952,0,0,1-15.935-15.934V510.82a15.952,15.952,0,0,1,15.935-15.935h96.786a15.952,15.952,0,0,1,15.934,15.934v45.745A15.952,15.952,0,0,1,340.992,572.5Z" transform="translate(-183.668 -158.958)" fill="#f2f2f2"/>
    <path id="Path_5822" data-name="Path 5822" d="M746.179,572.5H649.394a15.952,15.952,0,0,1-15.934-15.934V510.82a15.952,15.952,0,0,1,15.934-15.935h96.786a15.952,15.952,0,0,1,15.934,15.934v45.745A15.952,15.952,0,0,1,746.179,572.5Z" transform="translate(-257.7 -158.958)" fill="#f2f2f2"/>
    <path id="Path_5823" data-name="Path 5823" d="M746.179,427.32H649.394a15.952,15.952,0,0,1-15.934-15.934V365.641a15.952,15.952,0,0,1,15.934-15.934h96.786a15.952,15.952,0,0,1,15.934,15.934v45.745A15.952,15.952,0,0,1,746.179,427.32Z" transform="translate(-257.7 -162.746)" fill="#f2f2f2"/>
    <circle id="Ellipse_324" data-name="Ellipse 324" cx="26.245" cy="26.245" r="26.245" transform="translate(83.004 200.294)" fill="#fff"/>
    <path id="Path_5824" data-name="Path 5824" d="M302.5,405.6a2.722,2.722,0,0,1-1.638-.544l-.029-.022-6.168-4.722a2.74,2.74,0,0,1,3.333-4.35l3.995,3.063,9.441-12.312a2.74,2.74,0,0,1,3.842-.507l-.059.08.06-.079a2.743,2.743,0,0,1,.507,3.842l-11.1,14.482A2.741,2.741,0,0,1,302.5,405.6Z" transform="translate(-195.85 -168.721)" fill="#7c54c6"/>
    <circle id="Ellipse_325" data-name="Ellipse 325" cx="26.245" cy="26.245" r="26.245" transform="translate(249.021 199.826)" fill="#fff"/>
    <path id="Path_5825" data-name="Path 5825" d="M505.473,405.142a2.722,2.722,0,0,1-1.638-.544l-.029-.022-6.168-4.722a2.74,2.74,0,0,1,3.333-4.35l3.995,3.063,9.441-12.312a2.74,2.74,0,0,1,3.842-.507l-.059.08.06-.078a2.743,2.743,0,0,1,.507,3.842l-11.1,14.482a2.741,2.741,0,0,1-2.18,1.069Z" transform="translate(-232.797 -168.719)" fill="#7c54c6"/>
  </g>
</svg>
