<svg id="Quotemarks-right" xmlns="http://www.w3.org/2000/svg" width="42.398" height="29.929" viewBox="0 0 42.398 29.929">
  <path id="Path_5565" data-name="Path 5565" d="M9.467,9.412a9.4,9.4,0,0,1,.545,18.79c-.085.922-.021,3.431,2.383,6.922a.662.662,0,0,1-.077.844c-.984.984-1.592,1.6-2.018,2.037-.557.567-.811.826-1.183,1.163a.662.662,0,0,1-.88.01A25.391,25.391,0,0,1,.066,18.766C.461,13.346,4.415,9.412,9.467,9.412Zm-.8,28.361c.18-.178.386-.387.69-.7.369-.376.875-.891,1.642-1.661-2.918-4.5-2.367-7.7-2.126-8.159a.686.686,0,0,1,.6-.365,8.078,8.078,0,0,0,0-16.155c-4.339,0-7.736,3.417-8.08,8.125A24.213,24.213,0,0,0,8.667,37.773Z" transform="translate(23.528 -9.412)" fill="#fff"/>
  <path id="Path_5566" data-name="Path 5566" d="M35.581,18.766h0c.4-5.419,4.35-9.354,9.4-9.354a9.4,9.4,0,0,1,.545,18.79c-.085.921-.021,3.43,2.385,6.922a.662.662,0,0,1-.077.844c-.98.98-1.587,1.6-2.013,2.031-.56.571-.815.831-1.189,1.17a.662.662,0,0,1-.88.008A25.392,25.392,0,0,1,35.581,18.766Zm8.6,19.007c.182-.179.389-.39.7-.7.369-.375.873-.889,1.637-1.655-2.918-4.5-2.368-7.7-2.127-8.159a.688.688,0,0,1,.6-.365,8.078,8.078,0,1,0,0-16.155c-4.338,0-7.736,3.417-8.081,8.126h0A24.217,24.217,0,0,0,44.182,37.773Z" transform="translate(-35.516 -9.412)" fill="#fff"/>
</svg>
