<svg xmlns="http://www.w3.org/2000/svg" width="96.336" height="95.611" viewBox="0 0 96.336 95.611">
  <g id="XMLID_1_" transform="translate(0 -0.181)">
    <path id="Path_7" data-name="Path 7" d="M15.507,9.09,50.87,16.114a5.93,5.93,0,0,1,4.777,5.86V62.918a6.013,6.013,0,0,1-6.021,6.021H13.5a1.987,1.987,0,0,0,2.007-2.007V64.924H49.626a2.013,2.013,0,0,0,2.007-2.007V21.975a2.017,2.017,0,0,0-1.565-1.967l-34.56-6.824Z" transform="translate(40.689 26.853)" fill="#7c54c6"/>
    <path id="Path_8" data-name="Path 8" d="M27.035,14a2.007,2.007,0,1,1,0,4.014H19.007a2.007,2.007,0,0,1,0-4.014Z" transform="translate(51.238 41.652)" fill="#7c54c6"/>
    <path id="Path_9" data-name="Path 9" d="M27.035,17a2.007,2.007,0,1,1,0,4.014H19.007a2.007,2.007,0,0,1,0-4.014Z" transform="translate(51.238 50.694)" fill="#7c54c6"/>
    <path id="Path_10" data-name="Path 10" d="M27.035,20a2.007,2.007,0,1,1,0,4.014H19.007a2.007,2.007,0,0,1,0-4.014Z" transform="translate(51.238 59.736)" fill="#7c54c6"/>
    <path id="Path_11" data-name="Path 11" d="M17.014,67.2A2.007,2.007,0,0,1,13,67.2v-56.2a2.134,2.134,0,0,1,.723-1.565,2.11,2.11,0,0,1,1.686-.4l1.606.321V67.2Z" transform="translate(39.182 26.582)" fill="#7c54c6"/>
    <path id="Path_12" data-name="Path 12" d="M23.549,23v2.007a1.987,1.987,0,0,0,2.007,2.007H9.5a1.987,1.987,0,0,0,2.007-2.007V23Z" transform="translate(28.633 68.778)" fill="#7c54c6"/>
    <path id="Path_13" data-name="Path 13" d="M18.035,5a2.007,2.007,0,0,1,0,4.014H10.007a2.007,2.007,0,1,1,0-4.014Z" transform="translate(24.112 14.526)" fill="#7c54c6"/>
    <path id="Path_14" data-name="Path 14" d="M20.042,10.007a1.987,1.987,0,0,1-2.007,2.007H10.007a2.007,2.007,0,0,1,0-4.014h8.028A1.987,1.987,0,0,1,20.042,10.007Z" transform="translate(24.112 23.568)" fill="#7c54c6"/>
    <path id="Path_15" data-name="Path 15" d="M18.035,11a2.007,2.007,0,0,1,0,4.014H10.007a2.007,2.007,0,0,1,0-4.014Z" transform="translate(24.112 32.61)" fill="#7c54c6"/>
    <path id="Path_16" data-name="Path 16" d="M18.035,14a2.007,2.007,0,0,1,0,4.014H10.007a2.007,2.007,0,0,1,0-4.014Z" transform="translate(24.112 41.652)" fill="#7c54c6"/>
    <path id="Path_17" data-name="Path 17" d="M15.042,16.007a1.987,1.987,0,0,1-2.007,2.007H5.007a2.007,2.007,0,0,1,0-4.014h8.028A1.988,1.988,0,0,1,15.042,16.007Z" transform="translate(9.042 41.652)" fill="#7c54c6"/>
    <path id="Path_18" data-name="Path 18" d="M13.035,5a2.007,2.007,0,1,1,0,4.014H5.007A2.007,2.007,0,0,1,5.007,5Z" transform="translate(9.042 14.526)" fill="#7c54c6"/>
    <path id="Path_19" data-name="Path 19" d="M13.035,8a2.007,2.007,0,1,1,0,4.014H5.007A2.007,2.007,0,0,1,5.007,8Z" transform="translate(9.042 23.568)" fill="#7c54c6"/>
    <path id="Path_20" data-name="Path 20" d="M13.035,11a2.007,2.007,0,1,1,0,4.014H5.007a2.007,2.007,0,0,1,0-4.014Z" transform="translate(9.042 32.61)" fill="#7c54c6"/>
    <path id="Path_21" data-name="Path 21" d="M24.07,23.021a2.013,2.013,0,0,0-2.007-2.007H10.021a1.987,1.987,0,0,0-2.007,2.007V41.084H4V23.021A6.013,6.013,0,0,1,10.021,17H22.063a6.013,6.013,0,0,1,6.021,6.021V41.084H24.07Z" transform="translate(12.056 50.694)" fill="#7c54c6"/>
    <path id="Path_22" data-name="Path 22" d="M8.014,23h20.07v2.007a1.987,1.987,0,0,1-2.007,2.007H6.007A1.987,1.987,0,0,1,4,25.007V23Z" transform="translate(12.056 68.778)" fill="#7c54c6"/>
    <path id="Path_23" data-name="Path 23" d="M7.024.259l44.114,6.7A6,6,0,0,1,56.2,12.9v23.04l-1.606-.321a2.11,2.11,0,0,0-1.686.4,2.134,2.134,0,0,0-.723,1.565V12.9A2.029,2.029,0,0,0,50.5,10.9L6.382,4.233a1.111,1.111,0,0,0-.361-.04,1.893,1.893,0,0,0-1.284.482A1.919,1.919,0,0,0,4.014,6.2V89.771a2.013,2.013,0,0,0,2.007,2.007H16.056v2.007a1.987,1.987,0,0,0,2.007,2.007H6.021A6.013,6.013,0,0,1,0,89.771V6.2A5.911,5.911,0,0,1,2.127,1.623,6.025,6.025,0,0,1,7.024.259Z" transform="translate(0 0)" fill="#7c54c6"/>
  </g>
</svg>
