<svg xmlns="http://www.w3.org/2000/svg" width="68.642" height="68.642" viewBox="0 0 68.642 68.642">
  <g id="technical-support_1_" data-name="technical-support (1)" transform="translate(0 0.001)">
    <path id="Path_9304" data-name="Path 9304" d="M12.072,53.083a5.6,5.6,0,0,0-2.7.69A31.654,31.654,0,0,1,40.622,3.308,1.341,1.341,0,0,0,41.153.68,34.576,34.576,0,0,0,34.321,0,34.321,34.321,0,0,0,7.385,55.59a5.633,5.633,0,1,0,4.687-2.507ZM14.158,60.8a2.949,2.949,0,1,1,.864-2.085A2.929,2.929,0,0,1,14.158,60.8Zm0,0" transform="translate(0)" fill="#7c54c6"/>
    <path id="Path_9305" data-name="Path 9305" d="M232.263,40.8a5.619,5.619,0,1,0-1.982,1.819A31.654,31.654,0,0,1,199.088,93.1a1.341,1.341,0,0,0-.526,2.629,34.6,34.6,0,0,0,6.767.667A34.321,34.321,0,0,0,232.263,40.8Zm-6.771-1.036a2.95,2.95,0,1,1,2.085.864,2.93,2.93,0,0,1-2.085-.864Zm0,0" transform="translate(-171.008 -27.754)" fill="#7c54c6"/>
    <path id="Path_9306" data-name="Path 9306" d="M92.854,121.459a1.341,1.341,0,0,0,1.341,1.341h8.383a1.341,1.341,0,0,0,1.341-1.341v-2.6a21,21,0,0,0,5.032-2.085l1.835,1.835a1.34,1.34,0,0,0,1.9,0l5.925-5.929a1.341,1.341,0,0,0,0-1.9l-1.833-1.833a21,21,0,0,0,2.085-5.032h2.589a1.341,1.341,0,0,0,1.341-1.341V94.2a1.341,1.341,0,0,0-1.341-1.341h-2.59a21,21,0,0,0-2.085-5.031L118.6,86a1.341,1.341,0,0,0,0-1.9l-5.93-5.925a1.341,1.341,0,0,0-1.9,0L108.95,80a20.994,20.994,0,0,0-5.032-2.085V75.341A1.341,1.341,0,0,0,102.577,74H94.195a1.341,1.341,0,0,0-1.341,1.341v2.576A20.976,20.976,0,0,0,87.823,80L86,78.18a1.341,1.341,0,0,0-1.9,0l-5.929,5.926a1.34,1.34,0,0,0,0,1.9L80,87.825a20.991,20.991,0,0,0-2.085,5.031H75.33a1.34,1.34,0,0,0-1.341,1.34l0,8.383a1.34,1.34,0,0,0,1.341,1.341h2.589A20.994,20.994,0,0,0,80,108.951l-1.833,1.833a1.341,1.341,0,0,0,0,1.9l5.925,5.929a1.341,1.341,0,0,0,.948.393h0a1.341,1.341,0,0,0,.948-.393l1.835-1.835a21.012,21.012,0,0,0,5.032,2.085Zm-4.506-7.5a1.341,1.341,0,0,0-1.676.178l-1.632,1.632-4.03-4.033,1.631-1.631a1.34,1.34,0,0,0,.178-1.675,18.35,18.35,0,0,1-2.539-6.129,1.341,1.341,0,0,0-1.311-1.059h-2.3l0-5.7h2.3a1.341,1.341,0,0,0,1.311-1.059,18.352,18.352,0,0,1,2.539-6.128,1.34,1.34,0,0,0-.178-1.675l-1.62-1.621,4.033-4.03,1.619,1.619a1.342,1.342,0,0,0,1.676.178,18.343,18.343,0,0,1,6.128-2.539,1.341,1.341,0,0,0,1.059-1.311v-2.29h5.7V78.97a1.34,1.34,0,0,0,1.059,1.311,18.358,18.358,0,0,1,6.128,2.539,1.34,1.34,0,0,0,1.675-.178l1.619-1.619,4.033,4.03-1.62,1.62a1.34,1.34,0,0,0-.178,1.676,18.363,18.363,0,0,1,2.539,6.128,1.34,1.34,0,0,0,1.311,1.059h2.3v5.7h-2.3a1.341,1.341,0,0,0-1.311,1.059,18.347,18.347,0,0,1-2.539,6.128,1.341,1.341,0,0,0,.178,1.676l1.631,1.631-4.03,4.033-1.632-1.632a1.34,1.34,0,0,0-1.676-.178,18.363,18.363,0,0,1-6.128,2.539,1.341,1.341,0,0,0-1.059,1.311v2.313h-5.7v-2.313a1.341,1.341,0,0,0-1.059-1.311,18.352,18.352,0,0,1-6.128-2.539Zm0,0" transform="translate(-64.066 -64.08)" fill="#7c54c6"/>
    <path id="Path_9307" data-name="Path 9307" d="M195.527,184.449a11.078,11.078,0,1,0-11.078,11.078A11.09,11.09,0,0,0,195.527,184.449Zm-19.474,0a8.4,8.4,0,1,1,8.4,8.4A8.406,8.406,0,0,1,176.052,184.449Zm0,0" transform="translate(-150.128 -150.128)" fill="#7c54c6"/>
    <path id="Path_9308" data-name="Path 9308" d="M339.419,20.491a1.342,1.342,0,1,0-.947-.393A1.35,1.35,0,0,0,339.419,20.491Zm0,0" transform="translate(-292.754 -15.422)" fill="#7c54c6"/>
    <path id="Path_9309" data-name="Path 9309" d="M155.7,474.359a1.341,1.341,0,1,0,.948.393A1.351,1.351,0,0,0,155.7,474.359Zm0,0" transform="translate(-133.665 -410.764)" fill="#7c54c6"/>
  </g>
</svg>
