<svg xmlns="http://www.w3.org/2000/svg" width="700.153" height="608.621" viewBox="0 0 700.153 608.621">
  <g id="Group_7087" data-name="Group 7087" transform="translate(0.015 -0.032)">
    <path id="Path_5761" data-name="Path 5761" d="M803.624,434.708c-2.508-26.164-9.807-50.915-19.324-73.03a281.8,281.8,0,0,0-89.215-113.96c-.339-.263-.707-.509-1.024-.764a48.833,48.833,0,0,0,8.118-18.461C713,176.946,640,111.972,539.181,83.385c-80.913-22.912-155.17-15.455-186.95,15.028-74.13-5.42-151.468,47.6-202.861,129.259C131,256.9,115.456,291.423,108.638,330.455c-8.295,47.269-3.335,98.143,8.3,143.761,8.966,35.131,22.065,68.046,38.535,96.238q1.759,3.006,3.568,5.946,3.116,5.067,6.359,9.854c13.566,20.079,29.01,37.127,46,50.028a140.192,140.192,0,0,0,30.869,17.9c28.968,12.055,60.056,12.556,88.685,0a116.434,116.434,0,0,0,14.018-7.317q3.773-2.291,7.461-4.927c4.741-3.383,9.4-7.161,14.018-11.086,6.408-5.453,12.718-11.2,19.154-16.572l.551-.468c7.56-6.307,15.212-12.08,23.189-16.235a57.436,57.436,0,0,1,16.717-5.888A51.109,51.109,0,0,1,451.584,594c1.569.526,3.137,1.125,4.691,1.782a94.748,94.748,0,0,1,14.639,7.892c20.377,13.139,39.877,34.089,59.886,50.513,2.826,2.349,20.017-25.458,22.9-23.331,24.047,17.738,7.809-30.556,34.369-21.992,1.247.4,30.385,15.087,32,15.6,31.5,10.1,43.522-5.067,73.995-20.793,17.663-9.107,55,71.963,67.262,50.513a224.7,224.7,0,0,0,14.088-29.72q2.989-7.662,5.589-15.6c10.075-30.8,15.932-64.629,19.974-98.545C803.97,485.352,806,459.788,803.624,434.708Z" transform="translate(-104.53 -56.099)" fill="#7c54c6" opacity="0.1"/>
    <g id="Group_7086" data-name="Group 7086" transform="translate(61.888 0.032)" opacity="0.1">
      <path id="Path_5762" data-name="Path 5762" d="M415.37,573.27c.219.629.445,1.236.707,1.83q6.988-5.476,13.537-11.3a13.106,13.106,0,0,0,6.147-5.652c1.258-1.187,2.508-2.4,3.745-3.61a18.421,18.421,0,0,0-1.717-1.689c-4.183-3.667-9.355-5.207-14.081-3.646s-7.956,5.878-9.135,11.3A24.333,24.333,0,0,0,415.37,573.27Z" transform="translate(-257.26 -196.581)" fill="#3f3d56"/>
      <path id="Path_5763" data-name="Path 5763" d="M404.381,540.041a24.347,24.347,0,0,0,6.945,10.7c4.183,3.653,9.348,5.2,14.081,3.632.325-.113.636-.233.961-.36a13.106,13.106,0,0,0,6.147-5.652,18.27,18.27,0,0,0,2.028-5.3,25.336,25.336,0,0,0-7.772-23.471c-4.19-3.667-9.354-5.207-14.081-3.646s-7.956,5.878-9.136,11.3a24.333,24.333,0,0,0,.827,12.788Z" transform="translate(-254.03 -186.823)" fill="#3f3d56"/>
      <ellipse id="Ellipse_307" data-name="Ellipse 307" cx="15.452" cy="20.228" rx="15.452" ry="20.228" transform="translate(136.224 310.562) rotate(-18.29)" fill="#3f3d56"/>
      <ellipse id="Ellipse_308" data-name="Ellipse 308" cx="15.452" cy="20.228" rx="15.452" ry="20.228" transform="translate(128.468 287.093) rotate(-18.29)" fill="#3f3d56"/>
      <ellipse id="Ellipse_309" data-name="Ellipse 309" cx="15.452" cy="20.228" rx="15.452" ry="20.228" transform="translate(120.71 263.625) rotate(-18.29)" fill="#3f3d56"/>
      <path id="Path_5764" data-name="Path 5764" d="M335.691,149.554a74.989,74.989,0,0,0,2.826-9.849l-40.64,6.415,41.792-13.474a74.186,74.186,0,0,0-17.07-56.12l-46.335,47.508,39.043-54.969a74.01,74.01,0,1,0-90.062,117,73.928,73.928,0,0,0-3.78,15.466l58.643,9.454-59.271-.268a74.045,74.045,0,0,0,33.144,62.239,74,74,0,1,0,110.453-36.521,74,74,0,0,0-28.721-86.9Z" transform="translate(-192.129 -50.372)" fill="#7c54c6"/>
      <path id="Path_5765" data-name="Path 5765" d="M237.986,307.8a73.706,73.706,0,0,0,29.4,38.471,74,74,0,1,0,110.5-36.549C383.328,294.651,235.4,299.88,237.986,307.8Z" transform="translate(-205.577 -123.657)" opacity="0.1"/>
    </g>
    <path id="Path_5766" data-name="Path 5766" d="M489.8,248.058c-1.759-3.589-2.416-7.638-3.052-11.608-3.731-23.443-7.221-48.751,2.911-70,1.6-3.342,3.533-6.592,6.359-8.874,3.024-2.438,6.776-3.6,10.28-5.179,10.174-4.578,18.37-12.8,27.315-19.613s19.741-12.506,30.7-10.768c5.652.9,10.881,3.723,16.363,5.5,15.487,5.016,33.363,1.745,47.274,10.443,5.023,3.144,9.121,7.631,13.149,12.068l17.967,19.783c4.868,5.356,9.828,10.845,12.774,17.557s3.568,14.986-.184,21.246c-1.886,3.158-4.868,5.893-5.193,9.6-.353,4.027,2.572,7.489,3.639,11.375,2.826,10.266-7.539,19.077-16.992,23.132-28.565,12.223-59.992,10.817-90.232,10.315C540.357,262.648,502.783,274.468,489.8,248.058Z" transform="translate(-215.601 -71.273)" fill="#3f3d56"/>
    <path id="Path_5767" data-name="Path 5767" d="M554.44,358.592c-1.985,4.741-6.253,8.09-10.471,11.036s-8.719,5.751-13.8,5.991c8.952,11.51,21.2,19.974,33.165,28.262,5.575,3.851,11.227,7.694,17.586,9.87,5.836,1.992,12.046,2.487,18.151,3.321,7.772,1.067,15.508,2.713,23.316,2.388,13.912-.579,27.216-7.6,36.443-18.024s14.512-24.022,15.939-37.892c-4.946-.078-9.51-2.826-13.5-5.822-4.882-3.653-9.461-7.878-12.612-13.1-3.413-5.652-4.946-12.209-6.5-18.631-16.469-.495-32.939-.982-49.415-.664-6,.113-12.011.346-17.861,1.837-5.575,1.413-17.218,5.059-20.617,10.082-1.957,2.9,0,5.878.706,9C555.874,350.354,556.1,354.642,554.44,358.592Z" transform="translate(-229.444 -94.093)" fill="#be6f72"/>
    <path id="Path_5768" data-name="Path 5768" d="M554.44,358.592c-1.985,4.741-6.253,8.09-10.471,11.036s-8.719,5.751-13.8,5.991c8.952,11.51,21.2,19.974,33.165,28.262,5.575,3.851,11.227,7.694,17.586,9.87,5.836,1.992,12.046,2.487,18.151,3.321,7.772,1.067,15.508,2.713,23.316,2.388,13.912-.579,27.216-7.6,36.443-18.024s14.512-24.022,15.939-37.892c-4.946-.078-9.51-2.826-13.5-5.822-4.882-3.653-9.461-7.878-12.612-13.1-3.413-5.652-4.946-12.209-6.5-18.631-16.469-.495-32.939-.982-49.415-.664-6,.113-12.011.346-17.861,1.837-5.575,1.413-17.218,5.059-20.617,10.082-1.957,2.9,0,5.878.706,9C555.874,350.354,556.1,354.642,554.44,358.592Z" transform="translate(-229.444 -94.093)" opacity="0.1"/>
    <path id="Path_5769" data-name="Path 5769" d="M574.136,385.838c4.713,5.857,9.566,11.834,16.024,15.678a12.2,12.2,0,0,0,6.465,2.042c3.391-.141,6.2-2.558,8.683-4.875A477.106,477.106,0,0,0,640.636,362.1c3.483-4.02,7.065-8.21,11.834-10.549a718.265,718.265,0,0,1,3.363,117.13,4.238,4.238,0,0,1-.495,2.12c-.742,1.123-2.3,1.286-3.646,1.335-39.884,1.5-81.365,2.7-117.893-13.424,2.536-7.525,2.12-15.664,2.367-23.605a184.709,184.709,0,0,1,5.787-38.542c1.533-6.2,3.278-12.336,5.129-18.441,1.54-5.115,2.713-14.131,6.154-18C561.15,367.193,567.488,377.572,574.136,385.838Z" transform="translate(-230.509 -95.81)" fill="#e3e8f4"/>
    <path id="Path_5770" data-name="Path 5770" d="M507,376.54h4.946l12.718,21.2L511.24,430.943l-16.25-32.5Z" transform="translate(-145.265 -63.885)" fill="#3f3d56"/>
    <path id="Path_5771" data-name="Path 5771" d="M534.281,450.492a77.432,77.432,0,0,1-9.312-26.32,65.373,65.373,0,0,0-1.731-8.987c-1.342-4.281-3.872-7.869-6.154-11.566a113.615,113.615,0,0,1-15.862-46.5c-.876-7.627-1.463-16.364-6.677-20.979-3.278-2.9-7.645-3.338-11.743-3.254-15.849.468-31.028,7.643-42.774,20.22a75.978,75.978,0,0,1-6.182,6.442,38.254,38.254,0,0,1-7.065,4.54c-6.26,3.338-12.8,6.108-19.621,6.951a18.523,18.523,0,0,0-5.172,1.01c-2.035.835-3.709,2.6-5.426,4.172a47.314,47.314,0,0,1-18.5,10.548,498.975,498.975,0,0,0-21.9,80.7c-1.279,6.885-2.423,13.819-4.169,20.562-2.409,9.346-5.956,18.258-8.323,27.622-9.411,37.26.473,77.849-5.864,115.994l339.887.551c-5.341-9.789-3.42-22.223-3.879-33.855-.431-10.715-2.734-21.188-4.331-31.752-2.671-17.666-3.356-35.674-3.632-53.616-.113-7.577-.12-15.4,2.36-22.389,4.656-13.11,16.738-20.028,28.177-24.476,5.469-2.12,11.22-4.055,15.544-8.587,4.43-4.681,6.733-11.558,8.146-18.359-7.708-17.941-17.727-35.048-30.381-48.509-4.755-5.007-9.835-9.705-13.848-15.563-2.445-3.58-4.472-7.569-7.171-10.848-6.755-8.286-16.957-11.407-26.679-11.866-3-.142-6.048-.075-8.959-.96-8.351-2.5-13.671-12.142-21.2-17.132a21.652,21.652,0,0,0-17.218-3.121c-4.239,1.043-8.577,4.014-9.531,8.954-.53,2.779.12,5.649.367,8.478.763,8.7-2.3,17.232-6,24.809C566.153,400.456,544.4,421.56,534.281,450.492Z" transform="translate(-169.052 -75.346)" fill="#7c54c6"/>
    <path id="Path_5772" data-name="Path 5772" d="M661.72,244.734A71.36,71.36,0,1,1,628.6,184.473,71.356,71.356,0,0,1,661.72,244.734Z" transform="translate(-226.165 -68.022)" fill="#ffc4c6"/>
    <path id="Path_5773" data-name="Path 5773" d="M802.186,712.432V679.38H176.66q1.759,2.586,3.568,5.115a22.208,22.208,0,0,0,3.7,5.928A21.462,21.462,0,0,0,186.608,693c13.566,17.275,29.01,31.943,46,43.042a147.141,147.141,0,0,0,30.869,15.4H782.523Z" transform="translate(-125.702 -145.523)" fill="#3f3d56"/>
    <path id="Path_5774" data-name="Path 5774" d="M607.674,623.186c-9.588-.763-19.557-3.151-28.586.156a41.425,41.425,0,0,0-8.7,4.748,156.138,156.138,0,0,0-26.778,22.737,31.688,31.688,0,0,0-6.027,8.146c-2.014,4.345-2.19,9.3-3.533,13.9-.77,2.635-1.943,5.306-1.477,8.012s3.589,5.13,5.928,3.688h0a5.186,5.186,0,0,0,5.306,5.977,17.508,17.508,0,0,0,9.892-3.483h0a3.349,3.349,0,0,0,3.533,2.989c6.126-.4,11.962-3.533,17.2-6.952,6.154-3.985,12.265-8.521,19.472-9.892a31.576,31.576,0,0,0-11.411,8.825c-1.18,1.448-2.282,3.144-.982,5.384a6.281,6.281,0,0,0,3.377,2.664c8.069,2.826,16.837-1.851,22.221-8.337,2.169-2.621,4.084-5.652,7.065-7.242,4.8-2.579,10.711-.77,16.109-1.519,5.991-.82,11.029-4.727,16.533-7.249,7.327-3.349,15.494-4.239,23.316-6.232a4.239,4.239,0,0,0,2.459-1.272,4.388,4.388,0,0,0,.6-2.713,202.084,202.084,0,0,0-2.183-28.911,10.069,10.069,0,0,0-1.378-4.366c-1.54-2.19-4.465-2.826-7.1-3.264-4.239-.707-8.994-2.289-13.262-2.275-4.1,0-8.048,2.318-11.955,3.455A82.912,82.912,0,0,1,607.674,623.186Z" transform="translate(-230.118 -143.601)" fill="#ffc4c6"/>
    <path id="Path_5775" data-name="Path 5775" d="M690.355,607.733a50.164,50.164,0,0,0-28.445,12.718c8.81-2.225,18.292-4.423,26.785-1.2a22.341,22.341,0,0,1,1.173,41.29c1.717,1.929,4.239,2.876,6.747,3.6,18.123,5.285,37.524,2.12,56.057-1.484,3.391-.657,7.065-1.526,9.135-4.317,1.844-2.522,1.788-5.921,1.625-9.051-.473-9.036-1.258-18.37-5.356-26.417-5.553-10.923-15.2-14.993-26.813-13.728C717.6,610.6,704.034,606.348,690.355,607.733Z" transform="translate(-268.104 -144.17)" fill="#e3e8f4"/>
    <path id="Path_5776" data-name="Path 5776" d="M830.633,442.992c5.857,5.575,10.082,12.612,13.961,19.705a326.6,326.6,0,0,1,29.971,76.122c.664,2.607,1.321,5.285,2.876,7.482,2.261,3.186,6.1,4.946,8.563,7.956,2.96,3.66,3.533,8.818,2.557,13.424s-3.3,8.811-5.652,12.887c-6.437,11.149-14.032,22.659-25.852,27.753-4.946,2.12-10.351,3-15.7,3.7a308.141,308.141,0,0,1-60.607,1.957c3.533-4.1,3.872-10.146,2.621-15.41s-3.858-10.089-5.652-15.184c-1.413-3.978-2.409-8.217-4.889-11.637a23.72,23.72,0,0,0-6.642-5.843A48.094,48.094,0,0,0,747,558.865c5.066-3.957,11.63-5.271,17.8-7.065s12.633-4.55,15.869-10.1c1.943-3.328,2.48-7.277,2.741-11.121a94.281,94.281,0,0,0-3.985-34.253c-2.275-7.369-5.5-15.07-3.533-22.517,1-3.759,3.257-7.065,5.469-10.231,4.31-6.218,8.775-12.583,15.063-16.78a37.556,37.556,0,0,1,18.335-5.78C819.6,440.7,826.959,439.523,830.633,442.992Z" transform="translate(-293.075 -101.75)" fill="#7c54c6"/>
    <path id="Path_5777" data-name="Path 5777" d="M469.692,743.51c-.057,7.376-20.115,15.544-43.325,15.544s-42.583-8.147-42.894-15.544c-1.081-25.654,19.677-11.213,42.894-11.213S469.9,713.977,469.692,743.51Z" transform="translate(-186.382 -159.404)" fill="#3f3d56"/>
    <path id="Path_5778" data-name="Path 5778" d="M469.692,743.51c-.057,7.376-20.115,15.544-43.325,15.544s-42.583-8.147-42.894-15.544c-1.081-25.654,19.677-11.213,42.894-11.213S469.9,713.977,469.692,743.51Z" transform="translate(-186.382 -159.404)" opacity="0.2"/>
    <path id="Path_5779" data-name="Path 5779" d="M468.774,729.976c0,7.383-18.822,15.544-42.032,15.544s-42.032-8.139-42.032-15.544,18.815-11.206,42.032-11.206S468.774,722.6,468.774,729.976Z" transform="translate(-186.757 -157.082)" fill="#3f3d56"/>
    <path id="Path_5780" data-name="Path 5780" d="M468.774,729.976c0,7.383-18.822,15.544-42.032,15.544s-42.032-8.139-42.032-15.544,18.815-11.206,42.032-11.206S468.774,722.6,468.774,729.976Z" transform="translate(-186.757 -157.082)" fill="#fff" opacity="0.1"/>
    <path id="Path_5781" data-name="Path 5781" d="M464.142,725.058c-.042,5.758-15.685,12.1-33.794,12.1s-33.207-6.359-33.462-12.1c-.841-20.009,15.353-8.747,33.462-8.747S464.312,702.025,464.142,725.058Z" transform="translate(-190.321 -155.076)" fill="#3f3d56"/>
    <path id="Path_5782" data-name="Path 5782" d="M464.142,725.058c-.042,5.758-15.685,12.1-33.794,12.1s-33.207-6.359-33.462-12.1c-.841-20.009,15.353-8.747,33.462-8.747S464.312,702.025,464.142,725.058Z" transform="translate(-190.321 -155.076)" opacity="0.2"/>
    <path id="Path_5783" data-name="Path 5783" d="M463.424,712.064c0,6.437-14.675,13.53-32.783,13.53s-32.79-7.065-32.79-13.53,14.682-9.764,32.79-9.764S463.424,705.621,463.424,712.064Z" transform="translate(-190.613 -152.249)" fill="#3f3d56"/>
    <path id="Path_5784" data-name="Path 5784" d="M463.424,712.064c0,6.437-14.675,13.53-32.783,13.53s-32.79-7.065-32.79-13.53,14.682-9.764,32.79-9.764S463.424,705.621,463.424,712.064Z" transform="translate(-190.613 -152.249)" fill="#fff" opacity="0.1"/>
    <path id="Path_5785" data-name="Path 5785" d="M318.808,762.39s6.2-6.839,7.27-14.526-30.31-19.493-30.31-19.493-10.881,6.359-11.248,12.315C284.52,740.685,305.349,763.068,318.808,762.39Z" transform="translate(-157.355 -159.9)" fill="#3f3d56"/>
    <path id="Path_5786" data-name="Path 5786" d="M318.808,762.39s6.2-6.839,7.27-14.526-30.31-19.493-30.31-19.493-10.881,6.359-11.248,12.315C284.52,740.685,305.349,763.068,318.808,762.39Z" transform="translate(-157.355 -159.9)" opacity="0.2"/>
    <ellipse id="Ellipse_310" data-name="Ellipse 310" cx="6.825" cy="20.334" rx="6.825" ry="20.334" transform="translate(122.789 587.726) rotate(-59.03)" fill="#3f3d56"/>
    <ellipse id="Ellipse_311" data-name="Ellipse 311" cx="6.825" cy="20.334" rx="6.825" ry="20.334" transform="translate(122.789 587.726) rotate(-59.03)" fill="#fff" opacity="0.1"/>
    <path id="Path_5787" data-name="Path 5787" d="M226.433,682.428l17.847-29.752L226.129,637.26l-14.152-2.65-4.416,7.963L195.14,665.62Z" transform="translate(-57.271 -96.817)" fill="#3f3d56"/>
    <path id="Path_5788" data-name="Path 5788" d="M226.433,682.428l17.847-29.752L226.129,637.26l-14.152-2.65-4.416,7.963L195.14,665.62Z" transform="translate(-57.271 -96.817)" fill="#fff" opacity="0.1"/>
    <path id="Path_5789" data-name="Path 5789" d="M355.87,698.622s12.054-12.809,8.959-19.734-19.437-20.8-29.844-18.688-12.075,17.459-12.075,17.459Z" transform="translate(-167.451 -143.093)" fill="#3f3d56"/>
    <path id="Path_5790" data-name="Path 5790" d="M355.87,698.622s12.054-12.809,8.959-19.734-19.437-20.8-29.844-18.688-12.075,17.459-12.075,17.459Z" transform="translate(-167.451 -143.093)" opacity="0.2"/>
    <path id="Path_5791" data-name="Path 5791" d="M173.617,628.8l92.323,56.156s8.775-1.138,7.821-12.887l-91.44-56.763a9.461,9.461,0,0,0-6.239-1.343c-2.5.339-5.462,1.251-6.422,3.632a8.045,8.045,0,0,0-.509,1.886A9.319,9.319,0,0,0,173.617,628.8Z" transform="translate(-123.471 -143.6)" fill="#3f3d56"/>
    <path id="Path_5792" data-name="Path 5792" d="M173.617,628.8l92.323,56.156s8.775-1.138,7.821-12.887l-91.44-56.763a9.461,9.461,0,0,0-6.239-1.343c-2.5.339-5.462,1.251-6.422,3.632a8.045,8.045,0,0,0-.509,1.886A9.319,9.319,0,0,0,173.617,628.8Z" transform="translate(-123.471 -143.6)" opacity="0.2"/>
    <path id="Path_5793" data-name="Path 5793" d="M330.64,749.087a2.268,2.268,0,0,0,2.07-1.71c.452-1.59-.374-3.116-1.244-4.388a23.572,23.572,0,0,0-5.723-5.85c-3.759-2.72-7.4-5.786-11.658-7.772a35.62,35.62,0,0,0-7.687-2.423,26.141,26.141,0,0,0-6.048-.664,1.781,1.781,0,0,0-1.1,3.144h0a8.979,8.979,0,0,0,3.095,1.3,56.925,56.925,0,0,1,15.367,7.609,48.252,48.252,0,0,1,7.186,5.652C326.373,745.441,328.252,749.143,330.64,749.087Z" transform="translate(-161.492 -159.286)" fill="#3f3d56"/>
    <path id="Path_5794" data-name="Path 5794" d="M330.64,749.087a2.268,2.268,0,0,0,2.07-1.71c.452-1.59-.374-3.116-1.244-4.388a23.572,23.572,0,0,0-5.723-5.85c-3.759-2.72-7.4-5.786-11.658-7.772a35.62,35.62,0,0,0-7.687-2.423,26.141,26.141,0,0,0-6.048-.664,1.781,1.781,0,0,0-1.1,3.144h0a8.979,8.979,0,0,0,3.095,1.3,56.925,56.925,0,0,1,15.367,7.609,48.252,48.252,0,0,1,7.186,5.652C326.373,745.441,328.252,749.143,330.64,749.087Z" transform="translate(-161.492 -159.286)" opacity="0.2"/>
    <path id="Path_5795" data-name="Path 5795" d="M352,707.389s9.058.219,1.561-8.888-20.906-18.144-30.452-16.1c0,0-3.957,3.278-.537,3.844,3.243.537,18.37,3.533,25.322,11.962a18.057,18.057,0,0,0,2.536,2.5C352.063,702.034,354.26,704.549,352,707.389Z" transform="translate(-166.943 -148.807)" fill="#3f3d56"/>
    <path id="Path_5796" data-name="Path 5796" d="M352,707.389s9.058.219,1.561-8.888-20.906-18.144-30.452-16.1c0,0-3.957,3.278-.537,3.844,3.243.537,18.37,3.533,25.322,11.962a18.057,18.057,0,0,0,2.536,2.5C352.063,702.034,354.26,704.549,352,707.389Z" transform="translate(-166.943 -148.807)" opacity="0.2"/>
    <ellipse id="Ellipse_312" data-name="Ellipse 312" cx="6.825" cy="20.334" rx="6.825" ry="20.334" transform="translate(161.441 520.836) rotate(-59.03)" fill="#3f3d56"/>
    <ellipse id="Ellipse_313" data-name="Ellipse 313" cx="6.825" cy="20.334" rx="6.825" ry="20.334" transform="translate(161.441 520.836) rotate(-59.03)" fill="#fff" opacity="0.1"/>
    <path id="Path_5797" data-name="Path 5797" d="M265.055,667.038a10.1,10.1,0,0,1-5.045,8.012,10.281,10.281,0,0,1-13.629-4.614c-1.159-2.544-1.18-5.4-1.413-8.2a26.918,26.918,0,0,0-.367-2.727c-.707-3.639-3.716-7.5-7.355-6.783-3,.586-4.585,3.957-4.946,6.995a23.005,23.005,0,0,0-.141,2.515c0,.876.035,1.752.085,2.628.1,1.795.254,3.6.247,5.391,0,3.533-.763,7.284-3.314,9.708-3.095,2.946-7.843,3.081-12.124,3.031-10.45-.106-22.079-.707-29.943-7.136a21.447,21.447,0,0,1-2.685-2.579,22.207,22.207,0,0,1-3.7-5.928,27.408,27.408,0,0,1-1.6-5.115,45.549,45.549,0,0,1,.049-17c.622-3.632,1.823-7.609,4.479-9.927a8.061,8.061,0,0,1,2.12-1.335c1.272-.537,2.713-.707,3.822-1.547s1.83-2.367,3-3.285c2.353-1.844,5.928-1.053,8.683-1.674h.12l.148-.042c2.975-.707,5.723-2.332,8.528-3.533,1.208-.516,2.416-1.01,3.632-1.448a20.885,20.885,0,0,1,9.538-1.413c10.6,1.208,23.316,7.638,30.572,15.353a17.852,17.852,0,0,1,4.084,6.26,23.184,23.184,0,0,1,.975,6.069c.191,2.9.346,5.8,1.788,8.281.876,1.5,2.162,2.72,3.073,4.239a8.026,8.026,0,0,1,.551,1.067A9.7,9.7,0,0,1,265.055,667.038Z" transform="translate(-126.197 -146.081)" fill="#ffc4c6"/>
    <path id="Path_5798" data-name="Path 5798" d="M256.148,629.773A45.618,45.618,0,0,1,268.1,638c3.391,3.476,5.893,8.033,6.09,12.894a60.931,60.931,0,0,0,7.581-11.665c1.639-3.285,2.989-7.171,1.533-10.549a11.757,11.757,0,0,0-2.876-3.745c-6.359-6.02-14.908-9.348-23.556-10.711-9.348-1.477-28.021-4.7-29.456,8.909C237.891,622.644,246.793,624.955,256.148,629.773Z" transform="translate(-140.598 -147.93)" fill="#e3e8f4"/>
    <path id="Path_5799" data-name="Path 5799" d="M367.057,390.56c-6.917,2.989-15.014.876-22.327,2.685-5.4,1.335-10.04,4.72-14.42,8.146-8.733,6.825-17.338,14.456-22.009,24.51-1.526,3.292-2.614,6.79-4.444,9.892-2.96,5.059-7.687,8.825-12.612,12.011-12.583,8.111-27.195,13.184-38.393,23.118a87.6,87.6,0,0,0-12.576,14.449c-4.409,6.076-8.627,12.859-8.712,20.362,0,2.939.579,5.921,0,8.81-1.243,6.465-7.772,10.478-10.718,16.371-2.826,5.617-2.155,12.555-5.3,17.981-2.063,3.533-5.8,7.065-4.621,10.965A36.741,36.741,0,0,1,240.6,552.8c5.306,1.053,10.259,3.42,15.007,6.013,5.5,3.01,10.93,6.429,14.908,11.3s6.359,11.361,4.946,17.473c5.73-2.826,9.121-8.86,11.474-14.795s4.147-12.273,8.055-17.3a64.507,64.507,0,0,1,6.9-7c13.219-12.527,22.751-28.353,32.105-43.975q14.47-24.149,28.926-48.327a98.69,98.69,0,0,0,7.284-13.806C376.68,426.134,372.483,407.157,367.057,390.56Z" transform="translate(-135.692 -91.729)" fill="#7c54c6"/>
    <ellipse id="Ellipse_314" data-name="Ellipse 314" cx="40.28" cy="7.744" rx="40.28" ry="7.744" transform="translate(594.682 512.464)" fill="#7c54c6"/>
    <ellipse id="Ellipse_315" data-name="Ellipse 315" cx="4.691" cy="6.14" rx="4.691" ry="6.14" transform="translate(629.592 510.094)" fill="#3f3d56"/>
    <ellipse id="Ellipse_316" data-name="Ellipse 316" cx="4.691" cy="6.14" rx="4.691" ry="6.14" transform="translate(629.592 501.368)" fill="#3f3d56"/>
    <ellipse id="Ellipse_317" data-name="Ellipse 317" cx="4.691" cy="6.14" rx="4.691" ry="6.14" transform="translate(629.592 492.65)" fill="#3f3d56"/>
    <ellipse id="Ellipse_318" data-name="Ellipse 318" cx="4.691" cy="6.14" rx="4.691" ry="6.14" transform="translate(629.592 483.933)" fill="#3f3d56"/>
    <ellipse id="Ellipse_319" data-name="Ellipse 319" cx="4.691" cy="6.14" rx="4.691" ry="6.14" transform="translate(629.592 475.215)" fill="#3f3d56"/>
    <ellipse id="Ellipse_320" data-name="Ellipse 320" cx="4.691" cy="6.14" rx="4.691" ry="6.14" transform="translate(629.592 466.497)" fill="#3f3d56"/>
    <ellipse id="Ellipse_321" data-name="Ellipse 321" cx="4.691" cy="6.14" rx="4.691" ry="6.14" transform="translate(629.592 457.779)" fill="#3f3d56"/>
    <path id="Path_5800" data-name="Path 5800" d="M1010.458,528.895a22.757,22.757,0,0,0,1.745-2.565L999.882,524.3l13.325.1a22.511,22.511,0,0,0,.431-17.8l-17.883,9.277,16.49-12.124a22.468,22.468,0,1,0-37.107,25.139,22.9,22.9,0,0,0-2.558,4.1l16,8.316-17.07-5.73a22.482,22.482,0,0,0,3.618,21.1,22.468,22.468,0,1,0,35.327,0,22.481,22.481,0,0,0,0-27.781Z" transform="translate(-358.611 -119.93)" fill="#7c54c6"/>
    <path id="Path_5801" data-name="Path 5801" d="M970.34,563.522a22.376,22.376,0,0,0,4.8,13.891,22.468,22.468,0,1,0,35.327,0C1013.474,573.591,970.34,561,970.34,563.522Z" transform="translate(-358.617 -137.827)" opacity="0.1"/>
    <path id="Path_5802" data-name="Path 5802" d="M553.918,207.973c4.946,1.908,9.771,4.649,15.078,5.009,6.733.452,13.092-2.982,19.783-3.928,12.258-1.731,23.9,4.946,35.412,9.482s26.354,6.415,34.8-2.635c7.171-7.694,6.182-20.49.417-29.251s-15.183-14.428-24.5-19.31c-10.273-5.384-20.984-10.28-32.423-12.181-24.277-4.02-48.942,6.02-69.085,20.158-6.684,4.691-13.29,10.167-16.484,17.663-1.809,4.239-2.374,9.665-.8,14.081,2.586,7.263,4.282,6.4,9.644,4.508C536.007,207.965,542.062,203.437,553.918,207.973Z" transform="translate(-225.05 -80.829)" fill="#3f3d56"/>
  </g>
</svg>
