<svg xmlns="http://www.w3.org/2000/svg" width="72.825" height="73.835" viewBox="0 0 72.825 73.835">
  <g id="capability" transform="translate(-13.365 -10)">
    <path id="Path_9285" data-name="Path 9285" d="M166.437,165.136a.9.9,0,0,0-1.273-.015l-7.674,7.493-3.98-3.885a.9.9,0,1,0-1.258,1.289l4.609,4.5a.9.9,0,0,0,1.258,0l8.3-8.106A.9.9,0,0,0,166.437,165.136Z" transform="translate(-117.813 -131.624)" fill="#7c54c6"/>
    <path id="Path_9286" data-name="Path 9286" d="M82.6,54.12c0-.84-.01-3.4-.03-3.712a19.342,19.342,0,0,0-19.16-18.283A22.448,22.448,0,0,0,60.892,26.4l3.367-4.065a.9.9,0,0,0-.053-1.207l-5.573-5.645a.9.9,0,0,0-1.216-.061l-4.071,3.371a22.914,22.914,0,0,0-6.38-2.694l-.51-5.286a.9.9,0,0,0-.9-.814h-8a.9.9,0,0,0-.9.814l-.51,5.286a22.4,22.4,0,0,0-6.387,2.689L25.7,15.423a.9.9,0,0,0-1.211.057l-5.644,5.644a.9.9,0,0,0-.057,1.212l3.372,4.072a22.912,22.912,0,0,0-2.694,6.381l-5.287.51a.9.9,0,0,0-.814.9v8a.9.9,0,0,0,.814.9l5.286.508a22.389,22.389,0,0,0,2.689,6.387l-3.367,4.066a.9.9,0,0,0,.057,1.211l5.644,5.644a.9.9,0,0,0,1.211.057l4.071-3.372a22.918,22.918,0,0,0,6.381,2.695l.51,5.286a.9.9,0,0,0,.9.814h8a.9.9,0,0,0,.9-.814l.51-5.286q.518-.129,1.033-.283a27.149,27.149,0,0,1,1.486,5.075,144.309,144.309,0,0,1,.033,17.154,1.524,1.524,0,0,0,1.521,1.6h15.8a.9.9,0,0,0,.9-.9V76.918a1.744,1.744,0,0,1,1.667-1.225h.007c3.2.013,5.156.025,5.367.031a4.957,4.957,0,0,0,3.651-1.43,5.117,5.117,0,0,0,1.5-3.66V65.571h4.49a1.779,1.779,0,0,0,1.2-.441,1.722,1.722,0,0,0,.456-1.893ZM45.942,58.678a.9.9,0,0,0-.705.794l-.493,5.116H38.376l-.493-5.116a.9.9,0,0,0-.706-.794,21.131,21.131,0,0,1-6.99-2.949.9.9,0,0,0-1.063.063l-3.941,3.264L20.7,54.571l3.264-3.941a.9.9,0,0,0,.056-1.074,20.512,20.512,0,0,1-2.941-6.978.9.9,0,0,0-.794-.705l-5.116-.493V35.011l5.116-.493a.9.9,0,0,0,.794-.705,21.13,21.13,0,0,1,2.949-6.991.9.9,0,0,0-.063-1.062L20.7,21.818l4.485-4.485L29.124,20.6a.9.9,0,0,0,1.074.056,20.519,20.519,0,0,1,6.978-2.941.9.9,0,0,0,.706-.794l.493-5.116h6.367l.493,5.116a.9.9,0,0,0,.705.794,21.133,21.133,0,0,1,6.99,2.949.9.9,0,0,0,1.063-.063l3.937-3.261,4.423,4.478-3.267,3.945a.9.9,0,0,0-.056,1.074A20.479,20.479,0,0,1,61.552,32.2a17.679,17.679,0,0,0-4.3.941A16.48,16.48,0,1,0,45.808,54.119a18.2,18.2,0,0,0,1.531,4.2C46.875,58.456,46.408,58.577,45.942,58.678Zm-.448-6.339a14.681,14.681,0,1,1,10.084-18.51,17.788,17.788,0,0,0-7.749,7.158,18.059,18.059,0,0,0-2.334,11.352ZM79.031,63.77a.9.9,0,0,0-.9.9v6.055a3.2,3.2,0,0,1-3.291,3.2c-.236-.007-2.058-.018-5.415-.032h-.015a3.542,3.542,0,0,0-3.441,2.683.9.9,0,0,0-.027.22v5.239H51.332a141.775,141.775,0,0,0-.054-17.121c-.2-2.167-2.146-6.986-2.228-7.19a.835.835,0,0,0-.036-.079,16.227,16.227,0,0,1,.371-15.751,15.883,15.883,0,0,1,13.21-7.958q.226-.008.454-.011A17.543,17.543,0,0,1,80.768,50.511c.014.232.024,2.441.027,3.778a.9.9,0,0,0,.059.319l3.5,9.162Z" fill="#7c54c6"/>
  </g>
</svg>
