<svg xmlns="http://www.w3.org/2000/svg" width="90.5" height="78.834" viewBox="0 0 90.5 78.834">
  <g id="customer" transform="translate(0 -33)">
    <path id="Path_73" data-name="Path 73" d="M184.378,63.756A15.378,15.378,0,1,0,169,48.378,15.4,15.4,0,0,0,184.378,63.756Zm0-25.453A10.075,10.075,0,1,1,174.3,48.378,10.087,10.087,0,0,1,184.378,38.3Z" transform="translate(-139.128)" fill="#fff"/>
    <path id="Path_74" data-name="Path 74" d="M386.722,116.443A9.722,9.722,0,1,0,377,106.722,9.733,9.733,0,0,0,386.722,116.443Zm0-14.141a4.419,4.419,0,1,1-4.419,4.419A4.424,4.424,0,0,1,386.722,102.3Z" transform="translate(-310.362 -52.688)" fill="#fff"/>
    <path id="Path_75" data-name="Path 75" d="M78.5,241H74.4a12.02,12.02,0,0,0-10.9,6.956A21.339,21.339,0,0,0,47.721,241H42.779a21.339,21.339,0,0,0-15.772,6.956A12.02,12.02,0,0,0,16.1,241H12A11.979,11.979,0,0,0,0,252.929v19.3a5.2,5.2,0,0,0,5.2,5.179H21.412a6.2,6.2,0,0,0,6.166,5.656H62.922a6.2,6.2,0,0,0,6.166-5.656H85.116a5.379,5.379,0,0,0,5.384-5.363v-19.12A11.98,11.98,0,0,0,78.5,241ZM5.3,252.929A6.671,6.671,0,0,1,12,246.3h4.1a6.671,6.671,0,0,1,6.7,6.627v1.815c-1.783,4.642-1.414,7.425-1.414,17.365H5.3Zm58.507,23.949a.888.888,0,0,1-.888.887H27.578a.889.889,0,0,1-.887-.887V262.392A16.107,16.107,0,0,1,42.779,246.3h4.942a16.107,16.107,0,0,1,16.089,16.089ZM85.2,272.049c0,.091.988.06-16.085.06,0-10.013.366-12.73-1.414-17.365v-1.815a6.671,6.671,0,0,1,6.7-6.627h4.1a6.671,6.671,0,0,1,6.7,6.627Z" transform="translate(0 -171.234)" fill="#fff"/>
    <path id="Path_76" data-name="Path 76" d="M34.722,116.443A9.722,9.722,0,1,0,25,106.722,9.733,9.733,0,0,0,34.722,116.443Zm0-14.141a4.419,4.419,0,1,1-4.419,4.419A4.424,4.424,0,0,1,34.722,102.3Z" transform="translate(-20.581 -52.688)" fill="#fff"/>
  </g>
</svg>
