<svg xmlns="http://www.w3.org/2000/svg" width="98.069" height="98.069" viewBox="0 0 98.069 98.069">
  <g id="government" transform="translate(0 0)">
    <path id="Path_6" data-name="Path 6" d="M55.577,30.95a6.543,6.543,0,1,0-6.543,6.543A6.55,6.55,0,0,0,55.577,30.95Zm-10.213,0a3.67,3.67,0,1,1,3.67,3.67A3.674,3.674,0,0,1,45.365,30.95ZM95.291,42.936a2.781,2.781,0,0,0,2.777-2.777V32.892a2.781,2.781,0,0,0-2.777-2.777H75.885a2.4,2.4,0,0,1-1.163-.3L50.471,16.34V11.492H61.539a2.781,2.781,0,0,0,2.777-2.777V2.777A2.781,2.781,0,0,0,61.539,0H50.375A2.781,2.781,0,0,0,47.6,2.777V16.34l-12.41,6.895a1.437,1.437,0,0,0,1.4,2.512l12.451-6.917,24.292,13.5a5.278,5.278,0,0,0,2.558.663H95.2v7.076H2.873V32.987H22.184a5.278,5.278,0,0,0,2.558-.663l6.017-3.343a1.437,1.437,0,1,0-1.4-2.511l-6.017,3.343a2.4,2.4,0,0,1-1.163.3H2.777A2.781,2.781,0,0,0,0,32.892v7.267a2.781,2.781,0,0,0,2.777,2.777h.1V89.475A3.357,3.357,0,0,0,0,92.793v1.919a3.358,3.358,0,0,0,3.352,3.356H94.717a3.358,3.358,0,0,0,3.352-3.356V92.793A3.357,3.357,0,0,0,95.2,89.475V42.936ZM50.471,2.873H61.444V8.619H50.471ZM86.576,45.33V42.936h5.746v46.5H86.576V87.043A3.354,3.354,0,0,0,83.7,83.729V48.644a3.354,3.354,0,0,0,2.873-3.314ZM70.988,42.936H83.7V45.33a.479.479,0,0,1-.479.479H71.467a.479.479,0,0,1-.479-.479ZM83.7,87.043v2.394H70.988V87.043a.479.479,0,0,1,.479-.479H83.224a.479.479,0,0,1,.479.479ZM29.953,45.33V42.936H68.115V45.33a3.354,3.354,0,0,0,2.873,3.314V66.855a1.437,1.437,0,1,0,2.873,0V48.682H80.83V83.691H73.862V73.559a1.437,1.437,0,1,0-2.873,0v10.17a3.354,3.354,0,0,0-2.873,3.314v2.394H60.245V66.04a3.356,3.356,0,0,0-3.352-3.352H41.176a3.356,3.356,0,0,0-3.352,3.352v23.4H29.953V87.043a3.354,3.354,0,0,0-2.873-3.314V48.644a3.354,3.354,0,0,0,2.873-3.314ZM57.372,66.04v23.4H40.7V66.04a.479.479,0,0,1,.479-.479H56.893A.479.479,0,0,1,57.372,66.04Zm-43.006-23.1H27.08V45.33a.479.479,0,0,1-.479.479H14.844a.479.479,0,0,1-.479-.479ZM26.6,86.564a.479.479,0,0,1,.479.479v2.394H14.366V87.043a.479.479,0,0,1,.479-.479Zm-9.363-2.873V48.682h6.968V83.691H17.239ZM5.746,42.936h5.746V45.33a3.354,3.354,0,0,0,2.873,3.314V83.729a3.354,3.354,0,0,0-2.873,3.314v2.394H5.746ZM95.2,94.713a.481.481,0,0,1-.479.483H3.352a.481.481,0,0,1-.479-.483V92.793a.481.481,0,0,1,.479-.483H94.717a.481.481,0,0,1,.479.483ZM36.651,57.329H61.418A2.781,2.781,0,0,0,64.2,54.552V51.073A2.781,2.781,0,0,0,61.418,48.3H36.651a2.781,2.781,0,0,0-2.777,2.777v3.479A2.781,2.781,0,0,0,36.651,57.329Zm.1-6.16H61.322v3.287H36.746Z" fill="#fff"/>
  </g>
</svg>
