<svg id="handshake" xmlns="http://www.w3.org/2000/svg" width="101.122" height="66.65" viewBox="0 0 101.122 66.65">
  <g id="Group_35" data-name="Group 35">
    <path id="Path_204" data-name="Path 204" d="M101.122,104.473A7.106,7.106,0,0,0,99.67,100.1L91.658,89.845a6.89,6.89,0,0,0-5.425-2.575,6.68,6.68,0,0,0-3.544.993l-7.812,4.861A7.128,7.128,0,0,1,71.286,94a6.51,6.51,0,0,1-2.753-.54l-7.651-3.706a9.215,9.215,0,0,0-3.993-.84,9.948,9.948,0,0,0-5.615,1.618l-.893.626-3.039-1.513a11.462,11.462,0,0,0-4.982-1.025,11.922,11.922,0,0,0-4.573.839L32.575,91.68a9.528,9.528,0,0,1-3.537.6,9.523,9.523,0,0,1-3.535-.6l-5.216-2.225a7.591,7.591,0,0,0-2.976-.58,9.063,9.063,0,0,0-3.386.664,7.7,7.7,0,0,0-2.857,1.966l-9.5,10.635a6.166,6.166,0,0,0,.6,8.814l8.858,7.557-4.2,4.384a6.26,6.26,0,0,0,.215,8.866l.852.81a6.251,6.251,0,0,0,2.778,1.505,6.19,6.19,0,0,0,1.166,7.518h0l.855.814a6.341,6.341,0,0,0,6.807,1.232,6.2,6.2,0,0,0,1.742,3.033l.855.814a6.328,6.328,0,0,0,7.841.673,6.217,6.217,0,0,0,1.638,2.692l.855.814a6.336,6.336,0,0,0,8.91-.211l3.714-3.878,5.046,4.67a6.332,6.332,0,0,0,8.9-.321l.805-.863a6.214,6.214,0,0,0,1.412-2.553l1.955,1.8a6.342,6.342,0,0,0,8.909-.329l.8-.862a6.192,6.192,0,0,0,1.606-3.462,6.168,6.168,0,0,0,6.185-1.775l.8-.862a6.242,6.242,0,0,0,1.679-4.268,6.4,6.4,0,0,0-.172-1.406,6.245,6.245,0,0,0,3.779-1.913l.805-.863a6.269,6.269,0,0,0-.327-8.866l-1.506-1.391,13.6-15.032A7.158,7.158,0,0,0,101.122,104.473ZM12.248,130.878a2.859,2.859,0,0,1-1.975-.781l-.854-.81a2.85,2.85,0,0,1-.1-4.03l8.606-8.981a2.888,2.888,0,0,1,4.052-.1l.85.811a5.393,5.393,0,0,1,.882,2.066,2.836,2.836,0,0,1-.509,1.612c-.029.029-9.289,9.68-9.289,9.68A2.9,2.9,0,0,1,12.248,130.878Zm6.874,8.958a2.89,2.89,0,0,1-4.049.1l-.855-.813h0a2.859,2.859,0,0,1-.1-4.03s11.472-11.942,11.569-12.057a2.873,2.873,0,0,1,3.96-.02l.855.814a2.854,2.854,0,0,1,.1,4.031Zm9.4,5.077a2.885,2.885,0,0,1-4.048.1l-.857-.813a2.832,2.832,0,0,1-.249-3.839l7.989-8.339a2.864,2.864,0,0,1,3.89.039l.857.814a2.853,2.853,0,0,1,.1,4.03Zm15.181-.88-4.848,5.06a2.887,2.887,0,0,1-4.049.1l-.855-.813a2.853,2.853,0,0,1-.1-4.03l4.846-5.059a2.89,2.89,0,0,1,4.052-.1l.857.813a2.855,2.855,0,0,1,.094,4.03ZM85.82,130.309a2.823,2.823,0,0,1-.763,1.938l-.8.862a2.888,2.888,0,0,1-4.048.147L66.67,120.738l-2.341,2.506,14.489,13.422a2.852,2.852,0,0,1,.148,4.031l-.8.862a2.886,2.886,0,0,1-4.046.148L60.58,129.19,58.242,131.7l12.016,11.112a2.848,2.848,0,0,1,.117,3.989l-.8.862a2.891,2.891,0,0,1-4.05.149L53.529,136.737h0l0,0-2.334,2.511,0,0,.045.042,6.006,5.543a2.822,2.822,0,0,1,.052,3.9l-.8.863a2.881,2.881,0,0,1-4.041.146L47.222,144.9a6.174,6.174,0,0,0-1.239-7.373l-.857-.814a6.3,6.3,0,0,0-4.345-1.726c-.121,0-.242.028-.361.035,0-.029.007-.059.007-.087,0-1.649-1.948-4.542-1.948-4.542l-.855-.811a6.278,6.278,0,0,0-3.171-1.616,6.18,6.18,0,0,0-1.575-6.616l-.855-.814a6.312,6.312,0,0,0-4.347-1.728c-.182,0-.361.037-.541.053a6.242,6.242,0,0,0-1.928-4.345h0l-.853-.81a6.334,6.334,0,0,0-8.91.209l-2.032,2.12-9-7.676a2.759,2.759,0,0,1-.268-3.943l9.5-10.635a4.333,4.333,0,0,1,1.587-1.071,5.651,5.651,0,0,1,2.087-.41,4.165,4.165,0,0,1,1.622.3l5.213,2.224a12.827,12.827,0,0,0,4.891.879,12.828,12.828,0,0,0,4.891-.879l5.211-2.224a8.536,8.536,0,0,1,3.221-.563,8.179,8.179,0,0,1,3.443.663c.492.245.958.477,1.391.694l-5.314,3.736a6.138,6.138,0,0,0-1.4,8.713l0,0,.7.943a6.86,6.86,0,0,0,5.489,2.688,6.666,6.666,0,0,0,3.433-.935l3.178-1.909a5.234,5.234,0,0,1,2.639-.642,5.5,5.5,0,0,1,3.108.874l8.793,6.3a87.822,87.822,0,0,1,6.91,5.639l10.177,9.41A2.836,2.836,0,0,1,85.82,130.309ZM96.785,107,83.227,121.988l-6.156-5.69a90.573,90.573,0,0,0-7.24-5.907l-8.79-6.3a8.885,8.885,0,0,0-5.119-1.519A8.655,8.655,0,0,0,51.5,103.7l-3.176,1.909a3.225,3.225,0,0,1-1.658.444,3.428,3.428,0,0,1-2.729-1.3l-.7-.942,0,0a2.723,2.723,0,0,1,.624-3.877l9.4-6.6a6.614,6.614,0,0,1,3.631-.99,5.821,5.821,0,0,1,2.489.5l7.65,3.706a9.883,9.883,0,0,0,4.257.886,10.466,10.466,0,0,0,5.411-1.4l7.815-4.862a3.248,3.248,0,0,1,1.721-.472,3.467,3.467,0,0,1,2.711,1.256L96.958,102.2a3.73,3.73,0,0,1,.73,2.274A3.8,3.8,0,0,1,96.785,107Z" transform="translate(0 -87.27)" fill="#fff"/>
  </g>
</svg>
