<svg id="idea" xmlns="http://www.w3.org/2000/svg" width="76.476" height="92.543" viewBox="0 0 76.476 92.543">
  <g id="Group_33" data-name="Group 33" transform="translate(0)">
    <path id="Path_193" data-name="Path 193" d="M137.583,107.459a28.817,28.817,0,0,0,16.88-26.187,28.526,28.526,0,0,0-5.419-16.8,1.356,1.356,0,1,0-2.2,1.587,25.832,25.832,0,0,1,4.906,15.21,26.1,26.1,0,0,1-15.289,23.718,5.041,5.041,0,0,0-2.969,4.573v6.14H117.947v-6.14a5.006,5.006,0,0,0-2.93-4.556A26.034,26.034,0,1,1,142.8,61.625a1.356,1.356,0,0,0,1.78-2.045,28.745,28.745,0,1,0-30.678,47.9,2.289,2.289,0,0,1,1.336,2.085v6.14h-.47a3.186,3.186,0,0,0-3.181,3.183v2.191a3.183,3.183,0,0,0,2.937,3.169l1.148,7.122a4.988,4.988,0,0,0,4.944,4.211h1.943a1.356,1.356,0,0,0,0-2.711h-1.943a2.288,2.288,0,0,1-2.268-1.931l-1.077-6.678H119.4a1.356,1.356,0,0,0,0-2.711h-4.629a.471.471,0,0,1-.47-.47v-2.191a.471.471,0,0,1,.47-.472h21.91a.471.471,0,0,1,.47.472v2.191a.47.47,0,0,1-.47.47H125.721a1.356,1.356,0,0,0,0,2.711h8.451l-1.077,6.678a2.288,2.288,0,0,1-2.268,1.931h-1.943a1.356,1.356,0,0,0,0,2.711h1.943a4.988,4.988,0,0,0,4.944-4.211l1.148-7.122a3.183,3.183,0,0,0,2.938-3.169v-2.191a3.186,3.186,0,0,0-3.181-3.183h-.47v-6.14a2.325,2.325,0,0,1,1.377-2.1Z" transform="translate(-87.483 -43.035)" fill="#fff"/>
    <path id="Path_194" data-name="Path 194" d="M163.646,129.954v8.034A1.356,1.356,0,0,0,165,139.343h30.674a1.356,1.356,0,0,0,1.356-1.356v-8.034a8.669,8.669,0,0,0-8.659-8.659h-1.006a10.485,10.485,0,1,0-14.056,0h-1.006A8.669,8.669,0,0,0,163.646,129.954Zm8.919-16.433a7.774,7.774,0,1,1,7.774,7.774A7.782,7.782,0,0,1,172.565,113.521Zm15.807,10.485a5.955,5.955,0,0,1,5.948,5.948v6.678h-4.957v-2.3a1.356,1.356,0,1,0-2.711,0v2.3H174.026v-2.3a1.356,1.356,0,1,0-2.711,0v2.3h-4.957v-6.678a5.955,5.955,0,0,1,5.948-5.948Z" transform="translate(-142.101 -84.412)" fill="#fff"/>
    <path id="Path_195" data-name="Path 195" d="M249.856,6.363a1.356,1.356,0,0,0,1.356-1.356V1.356a1.356,1.356,0,1,0-2.711,0V5.007A1.356,1.356,0,0,0,249.856,6.363Z" transform="translate(-211.618)" fill="#fff"/>
    <path id="Path_196" data-name="Path 196" d="M148.48,32.532a1.356,1.356,0,1,0,2.348-1.356L149,28.014a1.356,1.356,0,0,0-2.348,1.356Z" transform="translate(-128.031 -22.395)" fill="#fff"/>
    <path id="Path_197" data-name="Path 197" d="M72.462,104.554l3.163,1.826a1.356,1.356,0,1,0,1.356-2.348l-3.163-1.826a1.356,1.356,0,0,0-1.356,2.348Z" transform="translate(-66.843 -83.584)" fill="#fff"/>
    <path id="Path_198" data-name="Path 198" d="M50.81,205.409a1.356,1.356,0,0,0-1.356-1.356H45.8a1.356,1.356,0,0,0,0,2.711h3.652A1.356,1.356,0,0,0,50.81,205.409Z" transform="translate(-44.447 -167.171)" fill="#fff"/>
    <path id="Path_199" data-name="Path 199" d="M75.625,296.158l-3.163,1.826a1.356,1.356,0,1,0,1.356,2.348l3.163-1.826a1.356,1.356,0,0,0-1.356-2.348Z" transform="translate(-66.843 -242.479)" fill="#fff"/>
    <path id="Path_200" data-name="Path 200" d="M341.1,33.029a1.355,1.355,0,0,0,1.852-.5l1.826-3.163a1.356,1.356,0,0,0-2.348-1.356l-1.826,3.162A1.355,1.355,0,0,0,341.1,33.029Z" transform="translate(-286.926 -22.395)" fill="#fff"/>
    <path id="Path_201" data-name="Path 201" d="M409.074,106.562a1.349,1.349,0,0,0,.677-.182l3.163-1.826a1.356,1.356,0,1,0-1.356-2.348l-3.163,1.826a1.356,1.356,0,0,0,.679,2.53Z" transform="translate(-342.057 -83.584)" fill="#fff"/>
    <path id="Path_202" data-name="Path 202" d="M437.357,204.053h-3.652a1.356,1.356,0,1,0,0,2.711h3.652a1.356,1.356,0,1,0,0-2.711Z" transform="translate(-362.237 -167.171)" fill="#fff"/>
    <path id="Path_203" data-name="Path 203" d="M412.913,297.983l-3.163-1.826a1.356,1.356,0,0,0-1.356,2.348l3.163,1.826a1.356,1.356,0,1,0,1.356-2.348Z" transform="translate(-342.057 -242.479)" fill="#fff"/>
  </g>
</svg>
