<svg id="notepad" xmlns="http://www.w3.org/2000/svg" width="63.294" height="84.454" viewBox="0 0 63.294 84.454">
  <path id="Path_206" data-name="Path 206" d="M50.019,5.734H36.446a9.618,9.618,0,0,0-17.6,0H5.275A9.286,9.286,0,0,0-4,15.01V75.179a9.286,9.286,0,0,0,9.275,9.275H50.019a9.287,9.287,0,0,0,9.275-9.275V15.01a9.286,9.286,0,0,0-9.275-9.275ZM20.376,9.957A2.111,2.111,0,0,0,22.438,8.3a5.367,5.367,0,0,1,10.419,0,2.11,2.11,0,0,0,2.063,1.659h4.186V11.81a5.058,5.058,0,0,1-5.052,5.052H21.241a5.058,5.058,0,0,1-5.053-5.052V9.957Zm34.7,65.222a5.057,5.057,0,0,1-5.053,5.053H5.275A5.058,5.058,0,0,1,.223,75.179V15.01A5.058,5.058,0,0,1,5.275,9.957h6.69V11.81a9.286,9.286,0,0,0,9.275,9.275H34.054a9.285,9.285,0,0,0,9.275-9.275V9.957h6.69a5.058,5.058,0,0,1,5.053,5.053Zm0,0" transform="translate(4)" fill="#fff"/>
  <path id="Path_207" data-name="Path 207" d="M124.746,228.037l-13.861,13.534-7.039-6.87a2.111,2.111,0,0,0-2.978,2.993l.028.028,8.513,8.312a2.112,2.112,0,0,0,2.951,0L127.7,231.06a2.111,2.111,0,0,0-2.949-3.021Zm0,0" transform="translate(-82.649 -189.026)" fill="#fff"/>
</svg>
