<svg xmlns="http://www.w3.org/2000/svg" width="75.815" height="76.178" viewBox="0 0 75.815 76.178">
  <g id="official-documents_1_" data-name="official-documents (1)" transform="translate(-0.013 0)">
    <ellipse id="Ellipse_387" data-name="Ellipse 387" cx="1.797" cy="1.437" rx="1.797" ry="1.437" transform="translate(30.197 48.15)" fill="#7c54c6"/>
    <path id="Path_9290" data-name="Path 9290" d="M40.013,127.481V133.4a1.481,1.481,0,0,0,1.481,1.481h42.8a1.481,1.481,0,0,0,1.481-1.481v-5.923A1.481,1.481,0,0,0,84.29,126h-42.8A1.481,1.481,0,0,0,40.013,127.481Zm15.7,1.481h27.1v2.962H55.71Zm-12.735,0h9.773v2.962H42.975Z" transform="translate(-34.077 -107.342)" fill="#7c54c6"/>
    <path id="Path_9291" data-name="Path 9291" d="M41.494,208.962h42.8a1.481,1.481,0,0,0,0-2.962h-42.8a1.481,1.481,0,0,0,0,2.962Z" transform="translate(-34.077 -175.495)" fill="#7c54c6"/>
    <path id="Path_9292" data-name="Path 9292" d="M41.494,248.962h42.8a1.481,1.481,0,0,0,0-2.962h-42.8a1.481,1.481,0,0,0,0,2.962Z" transform="translate(-34.077 -209.572)" fill="#7c54c6"/>
    <path id="Path_9293" data-name="Path 9293" d="M41.494,288.962H66.076a1.481,1.481,0,0,0,0-2.962H41.494a1.481,1.481,0,0,0,0,2.962Z" transform="translate(-34.077 -243.648)" fill="#7c54c6"/>
    <path id="Path_9294" data-name="Path 9294" d="M41.494,328.962H60.152a1.481,1.481,0,0,0,0-2.962H41.494a1.481,1.481,0,0,0,0,2.962Z" transform="translate(-34.077 -277.725)" fill="#7c54c6"/>
    <path id="Path_9295" data-name="Path 9295" d="M127.494,374.885h7.553a7.4,7.4,0,1,0,0-2.962h-7.553a1.481,1.481,0,0,0,0,2.962Zm14.808-2.962h-4.188a4.443,4.443,0,1,1,0,2.962H142.3a1.481,1.481,0,0,0,0-2.962Z" transform="translate(-107.342 -311.802)" fill="#7c54c6"/>
    <path id="Path_9296" data-name="Path 9296" d="M313.456,62.962a1.481,1.481,0,1,0,0-2.962h-2.962a1.481,1.481,0,1,0,0,2.962Z" transform="translate(-263.242 -51.115)" fill="#7c54c6"/>
    <path id="Path_9297" data-name="Path 9297" d="M253.455,62.962a1.481,1.481,0,1,0,0-2.962h-2.962a1.481,1.481,0,1,0,0,2.962Z" transform="translate(-212.127 -51.115)" fill="#7c54c6"/>
    <path id="Path_9298" data-name="Path 9298" d="M193.455,62.962a1.481,1.481,0,1,0,0-2.962h-2.962a1.481,1.481,0,1,0,0,2.962Z" transform="translate(-161.012 -51.115)" fill="#7c54c6"/>
    <ellipse id="Ellipse_388" data-name="Ellipse 388" cx="1.437" cy="1.797" rx="1.437" ry="1.797" transform="translate(27.322 72.585)" fill="#7c54c6"/>
    <path id="Path_9299" data-name="Path 9299" d="M1.494,75.818h20.88a1.481,1.481,0,1,0,0-2.962H2.975V14.808H13.34a1.481,1.481,0,0,0,1.481-1.481V2.962H54.656V44.818c-.672.795-1.3,1.493-1.842,2.049l-3.139-3.139a7.4,7.4,0,0,0-10.472,0l-2.094,2.094a1.481,1.481,0,0,0,0,2.094L54.655,65.462v7.395H35.7a1.481,1.481,0,1,0,0,2.962H56.136a1.481,1.481,0,0,0,1.481-1.481V68.424l.434.434a1.481,1.481,0,0,0,2.094,0l2.094-2.094a7.4,7.4,0,0,0,0-10.471L59.1,53.153c2.809-2.737,8.988-7.283,12.234-8.7A7.422,7.422,0,1,0,61.6,34.667a39.613,39.613,0,0,1-3.983,6.377V1.481A1.481,1.481,0,0,0,56.136,0H13.34a1.5,1.5,0,0,0-1.047.434L.447,12.28a1.488,1.488,0,0,0-.434,1.047v61.01a1.481,1.481,0,0,0,1.481,1.481ZM60.145,58.386a4.441,4.441,0,0,1,0,6.283L59.1,65.716,40.25,46.868,41.3,45.821a4.438,4.438,0,0,1,6.283,0ZM57.3,46.276a55.043,55.043,0,0,0,7.011-10.412,4.46,4.46,0,1,1,5.844,5.876c-3.685,1.6-10.1,6.338-13.146,9.318l-2.1-2.1c.7-.718,1.522-1.639,2.389-2.685ZM11.86,5.056v6.791H5.069Z" transform="translate(0)" fill="#7c54c6"/>
  </g>
</svg>
