<svg xmlns="http://www.w3.org/2000/svg" xmlns:xlink="http://www.w3.org/1999/xlink" width="137.964" height="137.974" viewBox="0 0 137.964 137.974">
  <defs>
    <clipPath id="clip-path">
      <rect width="137.964" height="137.974" fill="none"/>
    </clipPath>
  </defs>
  <g id="profit" clip-path="url(#clip-path)">
    <g id="profit-2" data-name="profit" transform="translate(-0.499 0)">
      <path id="Path_5898" data-name="Path 5898" d="M208.838,113c-17.884,0-32.338,20.709-32.338,38.536a28.972,28.972,0,0,0,.176,3.263v0L224.424,167.4h0l0,0,16.279-10.682a27.013,27.013,0,0,0,.466-5.174c0-17.864-14.484-38.536-32.338-38.536Zm0,0" transform="translate(-128.572 -82.549)" fill="#7c54c6"/>
      <path id="Path_5899" data-name="Path 5899" d="M159.172,261.633l0,0L187.3,243.175a7.709,7.709,0,0,1,9.332,12.186l-32.7,30.648a10.781,10.781,0,0,1-7.336,2.881H111.244L87.172,264.818l10.087-8.825a30.4,30.4,0,0,1,38.263-1.445c.8.488,2.028,2.005,4.469,2.005h11.676a8.074,8.074,0,0,1,7.5,5.08Zm0,0" transform="translate(-63.316 -176.786)" fill="#fed2a4"/>
      <path id="Path_5900" data-name="Path 5900" d="M256.884,10a52.185,52.185,0,0,0-14.614,2.073L250.9,27.58h11.96L271.5,12.073A52.18,52.18,0,0,0,256.884,10Zm0,0" transform="translate(-176.618 -7.305)" fill="#7c54c6"/>
      <path id="Path_5901" data-name="Path 5901" d="M270.044,74.579a30.577,30.577,0,0,0-19.182,0,5.388,5.388,0,0,0,1.347,10.5l.067.188,15.989-.126.016-.046a5.391,5.391,0,0,0,1.762-10.512Zm0,0" transform="translate(-180.187 -53.354)" fill="#707070"/>
      <path id="Path_5902" data-name="Path 5902" d="M60.623,348.338,42.838,366.123,10.5,333.786,28.286,316Zm0,0" transform="translate(-7.306 -230.844)" fill="#fff"/>
      <path id="Path_5904" data-name="Path 5904" d="M1.289,104.847l32.338,32.338a2.694,2.694,0,0,0,3.811,0L55.223,119.4a2.694,2.694,0,0,0,0-3.811l-.789-.789H93.278a13.444,13.444,0,0,0,9.178-3.61l32.692-30.64A10.4,10.4,0,0,0,122.555,64.1L115.3,68.866c-.049-14.608-8.878-30.185-21.031-37.2a8.1,8.1,0,0,0-3.572-13c-.133-.044-.265-.083-.4-.124L97.233,6.078a2.695,2.695,0,0,0-1.6-3.9,55.253,55.253,0,0,0-30.731,0,2.694,2.694,0,0,0-1.6,3.9L70.235,18.54c-.135.042-.269.082-.4.126a8.084,8.084,0,0,0-3.558,13C53.938,38.783,45.233,54.52,45.233,68.987c0,.395.009.784.022,1.171a33.114,33.114,0,0,0-13.088,7.02l-8.19,7.165-1.093-1.093a2.694,2.694,0,0,0-3.811,0L1.289,101.036a2.694,2.694,0,0,0,0,3.811ZM69.71,6.517a49.978,49.978,0,0,1,21.111,0L84.816,17.3a32.856,32.856,0,0,0-9.1,0Zm1.8,17.269a27.885,27.885,0,0,1,17.5,0,2.7,2.7,0,0,1-.674,5.253,26.362,26.362,0,0,0-16.145-.005h0a2.693,2.693,0,0,1-.679-5.245ZM73,34.444a21.026,21.026,0,0,1,14.2-.114c12.52,4.305,22.707,19.852,22.707,34.656a25.938,25.938,0,0,1-.235,3.569l-12.953,8.5a10.716,10.716,0,0,0-8.371-3.982H82.96V73.913a8.084,8.084,0,0,0-2.695-15.706,2.695,2.695,0,0,1,0-5.39,4.33,4.33,0,0,1,2.915,1.408,2.694,2.694,0,1,0,3.747-3.873,10.4,10.4,0,0,0-3.967-2.481V44.734a2.695,2.695,0,0,0-5.39,0v3.158A8.084,8.084,0,0,0,80.265,63.6a2.695,2.695,0,0,1,0,5.39,4.876,4.876,0,0,1-3.5-2.039,2.695,2.695,0,0,0-4.125,3.468,11.171,11.171,0,0,0,4.93,3.51v3.145h-.9c-1.324,0-1.919-.863-2.852-1.466a33.059,33.059,0,0,0-23.2-6.448c0-.057,0-.113,0-.171,0-14.6,10.04-30.092,22.381-34.543ZM35.717,81.232a27.71,27.71,0,0,1,34.869-1.317c.687.4,2.6,2.545,6.086,2.545H88.35a5.39,5.39,0,0,1,0,10.779H69.486a2.695,2.695,0,0,0,0,5.39H88.35A10.769,10.769,0,0,0,98.971,86.023l26.463-17.363a5.014,5.014,0,0,1,6.038,7.949L98.781,107.248a8.062,8.062,0,0,1-5.5,2.161H49.044L27.8,88.162ZM20.98,88.966l28.527,28.527L35.532,131.468,7,102.941Zm0,0" fill="#e6e6e6"/>
    </g>
  </g>
</svg>
