<svg xmlns="http://www.w3.org/2000/svg" width="40.159" height="28.348" viewBox="0 0 40.159 28.348">
  <g id="Quotemarks-right" transform="translate(0)">
    <path id="Path_5565" data-name="Path 5565" d="M8.907,37.76a8.906,8.906,0,0,1-.517-17.8c.081-.873.02-3.25-2.258-6.557a.627.627,0,0,1,.073-.8c.932-.932,1.508-1.519,1.911-1.93.528-.537.768-.782,1.121-1.1a.627.627,0,0,1,.833-.009A24.05,24.05,0,0,1,17.811,28.9C17.437,34.034,13.693,37.76,8.907,37.76ZM9.665,10.9c-.171.168-.366.367-.653.659-.349.356-.828.844-1.555,1.573,2.764,4.26,2.242,7.293,2.014,7.729a.65.65,0,0,1-.564.346,7.651,7.651,0,0,0,0,15.3c4.109,0,7.328-3.237,7.653-7.7A22.934,22.934,0,0,0,9.665,10.9Z" transform="translate(-0.001 -9.412)" fill="#fff"/>
    <path id="Path_5566" data-name="Path 5566" d="M53.327,28.9h0c-.375,5.133-4.12,8.86-8.905,8.86a8.906,8.906,0,0,1-.516-17.8c.081-.873.02-3.248-2.259-6.557a.627.627,0,0,1,.073-.8c.928-.928,1.5-1.514,1.906-1.924.53-.54.772-.787,1.126-1.108a.627.627,0,0,1,.833-.008A24.051,24.051,0,0,1,53.327,28.9Zm-8.147-18c-.172.17-.369.369-.659.665-.349.355-.827.842-1.55,1.568,2.764,4.26,2.243,7.293,2.015,7.729a.652.652,0,0,1-.564.346,7.651,7.651,0,1,0,0,15.3c4.109,0,7.328-3.237,7.654-7.7h0A22.938,22.938,0,0,0,45.181,10.9Z" transform="translate(-13.23 -9.412)" fill="#fff"/>
  </g>
</svg>
