<svg xmlns="http://www.w3.org/2000/svg" width="76.54" height="73.183" viewBox="0 0 76.54 73.183">
  <g id="user_3_" data-name="user (3)" transform="translate(0 -11.229)">
    <g id="Group_7184" data-name="Group 7184" transform="translate(0 11.229)">
      <path id="Path_9300" data-name="Path 9300" d="M242.246,383.944a1.494,1.494,0,1,1,1.474-1.251A1.511,1.511,0,0,1,242.246,383.944Z" transform="translate(-204.763 -325.687)" fill="#7c54c6"/>
      <path id="Path_9301" data-name="Path 9301" d="M75.925,301.047l-13.368-9.741v-3.259a1.5,1.5,0,0,0-1.495-1.495H16.972V282.6a1.495,1.495,0,0,0-2.375-1.208L.615,291.575a1.495,1.495,0,0,0,0,2.416l13.368,9.741v3.259a1.5,1.5,0,0,0,1.495,1.495h44.09v3.958a1.495,1.495,0,0,0,2.375,1.208l13.982-10.188a1.5,1.5,0,0,0,0-2.417Zm-13.368,8.458v-2.513a1.5,1.5,0,0,0-1.495-1.495H16.972v-6.482H30.7a1.495,1.495,0,0,0,0-2.99H15.477a1.5,1.5,0,0,0-1.495,1.495v2.514l-9.949-7.249,9.949-7.249v2.513a1.5,1.5,0,0,0,1.495,1.495h44.09v6.482H44.214a1.495,1.495,0,1,0,0,2.99H61.062a1.5,1.5,0,0,0,1.495-1.495v-2.514l9.949,7.249Z" transform="translate(0 -240.756)" fill="#7c54c6"/>
      <path id="Path_9302" data-name="Path 9302" d="M63.624,30.622a11.214,11.214,0,1,0-15.239,0,7.079,7.079,0,0,0-6.863,7.068V48.266a1.5,1.5,0,0,0,1.495,1.495H68.992a1.5,1.5,0,0,0,1.495-1.495V37.689a7.079,7.079,0,0,0-6.863-7.068Zm-15.843-8.2A8.224,8.224,0,1,1,56,30.619,8.221,8.221,0,0,1,47.78,22.419ZM67.5,46.772H44.512V37.689a4.086,4.086,0,0,1,4.081-4.081H63.416A4.086,4.086,0,0,1,67.5,37.689v9.082Z" transform="translate(-35.315 -11.229)" fill="#7c54c6"/>
      <path id="Path_9303" data-name="Path 9303" d="M298.824,30.622a11.214,11.214,0,1,0-15.239,0,7.079,7.079,0,0,0-6.863,7.068V48.267a1.5,1.5,0,0,0,1.495,1.495h25.975a1.5,1.5,0,0,0,1.495-1.495V37.689A7.079,7.079,0,0,0,298.824,30.622Zm-15.844-8.2a8.224,8.224,0,1,1,8.224,8.2A8.221,8.221,0,0,1,282.98,22.419ZM302.7,46.772H279.712V37.689a4.086,4.086,0,0,1,4.081-4.081h14.823a4.085,4.085,0,0,1,4.081,4.081Z" transform="translate(-235.354 -11.229)" fill="#7c54c6"/>
    </g>
  </g>
</svg>
