<svg xmlns="http://www.w3.org/2000/svg" width="91.022" height="115.354" viewBox="0 0 91.022 115.354">
  <g id="XMLID_1017_" transform="translate(-54)">
    <g id="XMLID_1278_" transform="translate(54 0)">
      <path id="XMLID_1279_" d="M230.3,51.747a2.761,2.761,0,0,1,2.967,2.484,2.253,2.253,0,1,0,4.506,0,7.072,7.072,0,0,0-5.22-6.665v-.313a2.253,2.253,0,0,0-4.506,0v.313a7.072,7.072,0,0,0-5.22,6.665,7.252,7.252,0,0,0,7.473,6.99,2.524,2.524,0,1,1-2.967,2.484,2.253,2.253,0,1,0-4.506,0,7.072,7.072,0,0,0,5.22,6.665v.314a2.253,2.253,0,1,0,4.506,0v-.313a7.072,7.072,0,0,0,5.22-6.665,7.252,7.252,0,0,0-7.473-6.99,2.524,2.524,0,1,1,0-4.969Z" transform="translate(-184.793 -34.861)" fill="#7c54c6"/>
      <path id="XMLID_1303_" d="M142.769,61.784h-10.3a24.218,24.218,0,0,0-24.19,24.19v9.364l-6.518,6.518V48.108A24.124,24.124,0,0,0,122.4,16.515a2.253,2.253,0,1,0-4.277,1.418A19.578,19.578,0,1,1,105.34,5.387a2.253,2.253,0,0,0,1.339-4.3,24.11,24.11,0,1,0-9.421,47.024v34.32L90.74,75.911V66.548a24.218,24.218,0,0,0-24.19-24.19h-10.3A2.253,2.253,0,0,0,54,44.611v10.3A24.218,24.218,0,0,0,78.19,79.1h9.364l9.7,9.7v22.047H74.691a2.253,2.253,0,1,0,0,4.506H124.33a2.253,2.253,0,0,0,0-4.506H101.764v-2.62l9.7-9.7h9.364a24.218,24.218,0,0,0,24.19-24.19v-10.3A2.253,2.253,0,0,0,142.769,61.784ZM78.19,74.592A19.706,19.706,0,0,1,58.506,54.907V46.863H66.55A19.706,19.706,0,0,1,86.234,66.548v4.858l-9.95-9.95A2.253,2.253,0,1,0,73.1,64.642l9.95,9.95Zm62.326-.257a19.706,19.706,0,0,1-19.684,19.684h-4.858l9.95-9.949a2.253,2.253,0,0,0-3.186-3.186l-9.95,9.95V85.975a19.706,19.706,0,0,1,19.684-19.684h8.044Z" transform="translate(-54 0)" fill="#7c54c6"/>
      <path id="XMLID_1306_" d="M316.633,32.706a2.254,2.254,0,1,0-1.593-.66A2.269,2.269,0,0,0,316.633,32.706Z" transform="translate(-255.716 -21.846)" fill="#7c54c6"/>
    </g>
  </g>
</svg>
